<svg xmlns="http://www.w3.org/2000/svg" viewBox="0 0 139.73 221.87"><defs><style>.cls-1{fill:#bbbdbf;}.cls-2,.cls-4{fill:#8cc544;}.cls-2{stroke:#006838;stroke-miterlimit:10;stroke-width:9.57px;}.cls-3{fill:#006838;}.cls-5{fill:#221f1f;opacity:0.3;}.cls-6{fill:#e6e6e7;}.cls-7{fill:#e2a63f;}.cls-8{fill:#754d2a;}.cls-9{fill:#d0d2d3;}.cls-10{fill:#f7f8f8;}.cls-11{fill:#e8b02c;}.cls-12{fill:#f9cb36;}.cls-13{fill:#c3872b;}.cls-14{fill:#fff;}</style></defs><title>Asset 2</title><g id="Layer_2" data-name="Layer 2"><g id="Layer_1-2" data-name="Layer 1"><path class="cls-1" d="M49.56,97.74,27.14,68.91s.51-5.22,15-4.72,35.44-3.41,49-3.72a171.65,171.65,0,0,1,31.22,2.59L98.91,97.74Z"/><path class="cls-2" d="M122,26.68C107.8,51,94,75.66,86.32,101.69L48.57,90.51c6.51-26.3,8.49-52.93,14.1-80.9A258.78,258.78,0,0,1,122,26.68Z"/><path class="cls-3" d="M84.1,41.37C95.33,44.59,101,54.17,97.19,62.14S83.44,74.59,74.52,72,59.34,60.45,60.69,51.84,72.86,38.22,84.1,41.37Z"/><path class="cls-3" d="M48.57,90.51l10.07,3c1.59-5.53-1.86-11.38-7.73-13.06C50.21,83.81,49.44,87.17,48.57,90.51Z"/><path class="cls-4" d="M75.2,52.17c-1.44-.29-2.44.61-3,2.68s-.18,3.29,1.1,3.64a1.87,1.87,0,0,0,2-.53,21.11,21.11,0,0,0,2.4-3.67,8.44,8.44,0,0,1,3.7-3.78,6.9,6.9,0,0,1,4.81-.16,5.35,5.35,0,0,1,4,3.66,8.3,8.3,0,0,1-.33,5.56c-1.81,4.58-4.8,6.58-9,6.07.31-1.32.61-2.63.92-4,2.25.34,3.81-.7,4.71-3.15.85-2.3.33-3.74-1.58-4.29a2.33,2.33,0,0,0-2.17.3,13.62,13.62,0,0,0-2.62,3.59A9.9,9.9,0,0,1,76.53,62a5.11,5.11,0,0,1-4,.39,5.41,5.41,0,0,1-3.43-2.87,8.11,8.11,0,0,1-.36-5.69c1.07-4.57,3.56-6.51,7.36-5.72C75.82,49.49,75.51,50.83,75.2,52.17Z"/><path class="cls-4" d="M69.72,51.93c-.3,1.25-.61,2.5-.91,3.75l-4-1.07c.27-1.25.54-2.5.8-3.76Z"/><path class="cls-4" d="M93.77,58.82l-1.5,3.58-3.92-1.17c.46-1.21.93-2.42,1.4-3.63Z"/><path class="cls-3" d="M85.73,101.51q1.53-5,3.27-9.9a10.61,10.61,0,0,0-13.28,6.94Z"/><path class="cls-3" d="M121,26.3q-7.65-3.15-15.35-5.83c-2.49,5.65,2,12.23,10.06,15.23Q118.4,31,121,26.3Z"/><path class="cls-3" d="M62.67,9.61q-1,5.37-1.94,10.67c8.54,1.54,16.43-1.57,18.19-7.52Q70.89,10.92,62.67,9.61Z"/><path class="cls-3" d="M72.59,78.61a3.6,3.6,0,0,1,2.54,4.46A3.7,3.7,0,0,1,68,81,3.6,3.6,0,0,1,72.59,78.61Z"/><path class="cls-3" d="M88.85,27.54c2.76.79,4.35,3,3.6,5S89,35.34,86.38,34.61s-4.25-2.89-3.65-4.87S86.09,26.76,88.85,27.54Z"/><path class="cls-2" d="M112.9,13.24C102.39,39.37,92.29,65.72,88.39,92.59c-13-1.89-25.9-3.77-39-5.65,2.67-27,.81-53.61,2.36-82.09A259.57,259.57,0,0,1,112.9,13.24Z"/><path class="cls-3" d="M77.55,33.21c11.58,1.57,18.59,10.24,15.93,18.68s-11.83,14.29-21,13-16.68-9.27-16.59-18S66,31.7,77.55,33.21Z"/><path class="cls-3" d="M49.43,86.94l10.39,1.5c.77-5.7-3.48-11-9.53-11.82C50.08,80.06,49.81,83.5,49.43,86.94Z"/><path class="cls-4" d="M70.28,45.17c-1.46-.08-2.32,1-2.56,3.08s.3,3.28,1.61,3.45a1.88,1.88,0,0,0,1.89-.81,21,21,0,0,0,1.84-4,8.38,8.38,0,0,1,3.13-4.26,6.74,6.74,0,0,1,4.73-.85,5.34,5.34,0,0,1,4.44,3.05,8.32,8.32,0,0,1,.47,5.55c-1.14,4.79-3.81,7.2-8,7.3.11-1.35.22-2.69.34-4,2.28,0,3.67-1.24,4.21-3.8.51-2.39-.21-3.74-2.17-4a2.36,2.36,0,0,0-2.11.61A13.86,13.86,0,0,0,76,50.38a10,10,0,0,1-3,4.36,5.13,5.13,0,0,1-3.86.95,5.38,5.38,0,0,1-3.81-2.35,8.06,8.06,0,0,1-1.17-5.58c.4-4.67,2.59-6.94,6.46-6.71Z"/><path class="cls-4" d="M64.83,45.72l-.36,3.84c-1.38-.17-2.76-.32-4.15-.48.08-1.27.17-2.55.25-3.83Z"/><path class="cls-4" d="M89.62,49.09c-.33,1.26-.65,2.51-1,3.77l-4.05-.61c.28-1.26.57-2.53.86-3.79Z"/><path class="cls-3" d="M87.77,92.5q.81-5.15,1.83-10.27A10.62,10.62,0,0,0,77.44,91Z"/><path class="cls-3" d="M111.94,13c-5.35-1.35-10.68-2.54-16-3.58-1.65,6,3.71,11.82,12.14,13.63C109.35,19.7,110.66,16.35,111.94,13Z"/><path class="cls-3" d="M51.79,4.85q-.26,5.46-.4,10.83c8.68.31,16-3.9,16.94-10C62.86,5.19,57.34,4.92,51.79,4.85Z"/><path class="cls-3" d="M71.49,71.71a3.6,3.6,0,0,1,3.15,4.05,3.69,3.69,0,0,1-7.31-1A3.61,3.61,0,0,1,71.49,71.71Z"/><path class="cls-3" d="M80.27,18.84c2.84.39,4.73,2.38,4.27,4.39s-3,3.32-5.7,3-4.62-2.25-4.32-4.29S77.42,18.46,80.27,18.84Z"/><path class="cls-5" d="M139.73,213.76c0,4.48-32.6,8.11-68.55,8.11s-61.64-3.63-61.64-8.11,25.69-8.12,61.64-8.12S139.73,209.28,139.73,213.76Z"/><path class="cls-6" d="M49.56,97.74,27.14,68.91s.51-8.92,15-8.41S72,67.23,85.58,67.86a115,115,0,0,0,36.77-4.8L98.91,97.74Z"/><path class="cls-6" d="M127.41,150.73c-7.2-17.71-18.28-36.23-28.5-53H49.57a542.56,542.56,0,0,0-28.28,53C4.27,188,14,200.32,34,209.14c14.82,6.53,66,6.53,80.8,0C134.73,200.32,139.77,181.12,127.41,150.73Z"/><path class="cls-7" d="M83.25,146.78c-.3-3.55-3.57-5.34-9.84-5.35s-9.44,1.64-9.45,5a4.64,4.64,0,0,0,3,4.47q3,1.41,12.21,3.19T92.65,160a14.19,14.19,0,0,1,4.27,10.75q0,7.71-6.94,11.89a29.75,29.75,0,0,1-15.8,4.15q-21.5-.09-24.45-16.56l11.87-.92c.85,5.77,5.09,8.66,12.68,8.69Q85,178,85,170.8A5.2,5.2,0,0,0,82.41,166c-1.72-1.06-5.78-2.21-12.15-3.48s-11-3.19-13.8-5.76a12.38,12.38,0,0,1-4.22-9.57c0-4.09,1.85-7.56,5.5-10.38s9-4.22,15.91-4.19q20.66.06,21.6,13.75Z"/><polygon class="cls-7" points="79.8 133.78 68.5 133.74 68.53 123.46 79.83 123.5 79.8 133.78"/><rect class="cls-7" x="68.82" y="184.31" width="10.28" height="11.3" transform="translate(-116.29 263.2) rotate(-89.78)"/><path class="cls-8" d="M103.48,98.81a2,2,0,0,1-2.2,1.78H46.49a2,2,0,0,1-2.2-1.78V97.34a2,2,0,0,1,2.2-1.78h54.79a2,2,0,0,1,2.2,1.78Z"/><path class="cls-9" d="M88.26,206.14c9.12,6.56,25.4,1,31.43-3.29,8.38-5.94,12.21-17.79,11.25-26.26a69.47,69.47,0,0,0-5.72-22.11c-1.21-2.81,4.16,8.55-2.37,23.86-4.87,11.42-19,14.34-28.3,15.39C88,194.47,79.19,199.61,88.26,206.14Z"/><path class="cls-9" d="M82.72,94S100,87.77,108.5,79C118.12,69.09,99,94,99,94Z"/><path class="cls-10" d="M33.75,71s.33.25.86.72,1.27,1.16,2.11,2a69.5,69.5,0,0,1,5.71,6.65,69,69,0,0,1,4.88,7.28c.6,1,1.06,1.94,1.37,2.58s.47,1,.47,1-.33-.25-.86-.72-1.27-1.15-2.12-2a66.41,66.41,0,0,1-5.7-6.65,72.27,72.27,0,0,1-4.88-7.28c-.59-1-1.06-1.93-1.37-2.57S33.75,71,33.75,71Z"/><path class="cls-10" d="M51,104.2s-.28.84-.82,2.28-1.32,3.49-2.34,5.9c-2,4.86-4.94,11.2-8.1,17.44s-6.53,12.35-9.26,16.84c-1.34,2.25-2.53,4.1-3.38,5.39s-1.35,2-1.35,2,.27-.84.81-2.28,1.32-3.49,2.34-5.91c2-4.86,4.94-11.2,8.1-17.43s6.53-12.35,9.27-16.84c1.34-2.26,2.53-4.1,3.37-5.39S51,104.2,51,104.2Z"/><path class="cls-11" d="M48.58,197.38a23.66,23.66,0,1,1-16-29.4A23.67,23.67,0,0,1,48.58,197.38Z"/><path class="cls-12" d="M44.48,196.17a19.38,19.38,0,1,1-13.09-24.09A19.39,19.39,0,0,1,44.48,196.17Z"/><path class="cls-13" d="M31.44,186.75q.46-2.22-3.36-3.37t-4.46.9a2,2,0,0,0,.69,2.19,27.36,27.36,0,0,0,4.6,2.77,11.25,11.25,0,0,1,4.77,4,6,6,0,0,1,.45,4.9,5.6,5.6,0,0,1-4.27,4,12.7,12.7,0,0,1-6.95-.21q-8.76-2.64-8-9.71l5,1.06Q19.36,197,24,198.41q4.35,1.31,5.23-1.64a2.22,2.22,0,0,0-.47-2.27,19.49,19.49,0,0,0-4.54-2.88,12.36,12.36,0,0,1-4.93-4,5.28,5.28,0,0,1-.57-4.41,5.44,5.44,0,0,1,3.5-3.57q2.75-1.06,7,.21,8.42,2.52,7.15,8.22Z"/><rect class="cls-13" x="27.75" y="175.84" width="4.37" height="4.81" transform="translate(-149.39 155.68) rotate(-73.29)"/><rect class="cls-13" x="20.25" y="200.85" width="4.37" height="4.81" transform="translate(-178.68 166.29) rotate(-73.29)"/><path class="cls-14" d="M7.6,185.6c0-1.86.82-4.69,1.44-5.3s3.43-1.43,5.29-1.44c-1.86,0-4.59-.72-5.29-1.43S7.6,174,7.6,172.13c0,1.91-.72,4.58-1.52,5.39s-3.4,1.34-5.21,1.34c1.86,0,4.6.74,5.3,1.44S7.6,183.74,7.6,185.6Z"/><path class="cls-14" d="M12.1,186.64a3.89,3.89,0,0,1,.51-1.89,3.93,3.93,0,0,1,1.88-.51,3.64,3.64,0,0,1-1.88-.51,3.48,3.48,0,0,1-.51-1.88,3.47,3.47,0,0,1-.55,1.92,3.34,3.34,0,0,1-1.85.47,3.7,3.7,0,0,1,1.88.51A3.61,3.61,0,0,1,12.1,186.64Z"/><path class="cls-14" d="M3.33,191.71a5.42,5.42,0,0,1,.7-2.62,5.53,5.53,0,0,1,2.62-.71,5.16,5.16,0,0,1-2.62-.7,5,5,0,0,1-.7-2.62,4.83,4.83,0,0,1-.76,2.66,4.57,4.57,0,0,1-2.57.66,5.16,5.16,0,0,1,2.62.71A5.06,5.06,0,0,1,3.33,191.71Z"/></g></g></svg>