<svg xmlns="http://www.w3.org/2000/svg" viewBox="0 0 166.77 167.46"><defs><style>.cls-1{fill:#eedb6d;}.cls-2{fill:#afd469;}</style></defs><title>Asset 3</title><g id="Layer_2" data-name="Layer 2"><g id="Layer_1-2" data-name="Layer 1"><path class="cls-1" d="M111.21,55.91a45.77,45.77,0,0,1,8.34,11.82c7.65,16,5.22,36.17-8.34,49.39L74,154.68A43.28,43.28,0,0,1,12.78,93.47L39.21,67a49.28,49.28,0,0,0,1,31.65L29.13,109.81c-7.65,7.66-7.65,20.52,0,28.52a20,20,0,0,0,28.52,0l37.21-37.21A20.17,20.17,0,0,0,80.6,66.69L99.38,47.91A41.91,41.91,0,0,1,111.21,55.91Z"/><path class="cls-2" d="M55.56,111.55a45.64,45.64,0,0,1-8.35-11.82c-7.65-16-5.21-36.17,8.35-49.39L92.77,12.78A43.28,43.28,0,0,1,154,74l-26.43,26.43a49.32,49.32,0,0,0-1-31.64l11.13-11.13c7.65-7.66,7.65-20.52,0-28.52a20,20,0,0,0-28.52,0L72.25,66.69a20.17,20.17,0,0,0,14.26,34.43L67.73,119.9A47.54,47.54,0,0,1,55.56,111.55Z"/></g></g></svg>