<svg xmlns="http://www.w3.org/2000/svg" xmlns:xlink="http://www.w3.org/1999/xlink" viewBox="0 0 200 200"><defs><style>.cls-1{fill:#e6e7e7;}.cls-2{fill:url(#linear-gradient);}.cls-3{fill:#463c97;}.cls-4{fill:url(#linear-gradient-2);}.cls-11,.cls-5,.cls-7{fill:#fff;}.cls-5{opacity:0.6;}.cls-6,.cls-9{fill:#85d2e2;}.cls-6,.cls-8{opacity:0.7;}.cls-10{fill:url(#linear-gradient-3);}.cls-11{opacity:0.3;}.cls-12{fill:url(#linear-gradient-4);}.cls-13{opacity:0.5;}.cls-14{fill:url(#linear-gradient-5);}.cls-15{fill:url(#linear-gradient-6);}.cls-16{fill:url(#linear-gradient-7);}.cls-17{fill:url(#linear-gradient-8);}.cls-18{fill:url(#linear-gradient-9);}.cls-19{fill:url(#linear-gradient-10);}.cls-20{fill:url(#linear-gradient-11);}.cls-21{fill:#f2cbaa;}.cls-22{fill:#e1e2e2;}.cls-23{fill:#302c2d;}.cls-24{fill:#aeaeae;}.cls-25{fill:url(#linear-gradient-12);}.cls-26{fill:#d7d6d6;}.cls-27{fill:#c8c7c6;}.cls-28{fill:#f4d3b3;}.cls-29{fill:#eac4a5;}.cls-30{fill:#231f20;}.cls-31{fill:#b5b6b6;}.cls-32{fill:url(#linear-gradient-13);}</style><linearGradient id="linear-gradient" x1="98.05" y1="187.71" x2="98.05" y2="97.75" gradientUnits="userSpaceOnUse"><stop offset="0" stop-color="#e6e7e7"/><stop offset="0.05" stop-color="#d0cfdc"/><stop offset="0.15" stop-color="#aba8ca"/><stop offset="0.25" stop-color="#8c87ba"/><stop offset="0.36" stop-color="#726bad"/><stop offset="0.48" stop-color="#5f56a3"/><stop offset="0.61" stop-color="#51479c"/><stop offset="0.76" stop-color="#493f98"/><stop offset="1" stop-color="#463c97"/></linearGradient><linearGradient id="linear-gradient-2" x1="89.62" y1="112.33" x2="175" y2="112.33" gradientUnits="userSpaceOnUse"><stop offset="0" stop-color="#382f83"/><stop offset="0.09" stop-color="#393085"/><stop offset="1" stop-color="#463c97"/></linearGradient><linearGradient id="linear-gradient-3" x1="60.03" y1="98.6" x2="84.45" y2="139.76" gradientUnits="userSpaceOnUse"><stop offset="0" stop-color="#382f83"/><stop offset="0.53" stop-color="#423891"/><stop offset="1" stop-color="#463c97"/></linearGradient><linearGradient id="linear-gradient-4" x1="35.35" y1="60.28" x2="74.79" y2="-8.02" gradientTransform="matrix(1, -0.58, 0, 1, 0, 80.76)" gradientUnits="userSpaceOnUse"><stop offset="0" stop-color="#85d2e2"/><stop offset="0.06" stop-color="#80c7dd"/><stop offset="0.51" stop-color="#617db7"/><stop offset="0.84" stop-color="#4e4ea0"/><stop offset="1" stop-color="#463c97"/></linearGradient><linearGradient id="linear-gradient-5" x1="83.38" y1="136.1" x2="108.85" y2="153.29" xlink:href="#linear-gradient-3"/><linearGradient id="linear-gradient-6" x1="159.67" y1="147.83" x2="159.67" y2="103.99" gradientUnits="userSpaceOnUse"><stop offset="0" stop-color="#463c97"/><stop offset="0.45" stop-color="#9f99c9"/><stop offset="0.83" stop-color="#e4e2f0"/><stop offset="1" stop-color="#fff"/></linearGradient><linearGradient id="linear-gradient-7" x1="147.32" y1="147.83" x2="147.32" y2="103.99" xlink:href="#linear-gradient-6"/><linearGradient id="linear-gradient-8" x1="143.22" y1="157.03" x2="143.22" y2="122.91" xlink:href="#linear-gradient-6"/><linearGradient id="linear-gradient-9" x1="130.87" y1="157.03" x2="130.87" y2="122.91" xlink:href="#linear-gradient-6"/><linearGradient id="linear-gradient-10" x1="126.78" y1="166.23" x2="126.78" y2="141.83" xlink:href="#linear-gradient-6"/><linearGradient id="linear-gradient-11" x1="114.43" y1="166.23" x2="114.43" y2="141.83" xlink:href="#linear-gradient-6"/><linearGradient id="linear-gradient-12" x1="767.66" y1="73.84" x2="767.66" y2="73.83" gradientTransform="matrix(-1, 0, 0, 1, 827.42, 0)" gradientUnits="userSpaceOnUse"><stop offset="0" stop-color="#5d6bb2"/><stop offset="1" stop-color="#7d87c2"/></linearGradient><linearGradient id="linear-gradient-13" x1="44.38" y1="145.26" x2="55.03" y2="130.73" gradientUnits="userSpaceOnUse"><stop offset="0" stop-color="#fff"/><stop offset="0.17" stop-color="#e4e2f0"/><stop offset="0.55" stop-color="#9f99c9"/><stop offset="1" stop-color="#463c97"/></linearGradient></defs><title>Asset 1</title><g id="Layer_2" data-name="Layer 2"><g id="Layer_1-2" data-name="Layer 1"><rect class="cls-1" width="200" height="200" rx="100"/><path class="cls-2" d="M176,142.58V127.36h-4.68c-3.77-6-9.8-11.63-18.13-16.44-30.43-17.56-79.76-17.56-110.18,0-8.33,4.81-14.37,10.44-18.13,16.44H20.14v15.37c0,11.51,7.61,23,22.82,31.81,30.42,17.56,79.75,17.56,110.18,0C168.42,165.72,176,154.14,176,142.58Z"/><path class="cls-3" d="M153.14,95.86c30.43,17.56,30.43,46,0,63.61S73.38,177,43,159.47s-30.43-46,0-63.61S122.71,78.29,153.14,95.86Z"/><polygon class="cls-4" points="89.62 90.25 169.61 139.96 175 127 99.12 84.7 89.62 90.25"/><path class="cls-5" d="M161,80.53c-2.3,3-4.43,6.79-6.76,8.76-2.12,1.79-5.19-.7-7-5.1-3.15-7.79-3-8.89-4.06-13.87-2.95-13.79-9.32-14-10.94-5.39-.76,4-3.7,18.6-11.11,14.32-6-3.48-6.75-8.23-9-15.67-.84-2.83-4.52-8.25-7.77-5.36-2.65,2.37-5,15-5.3,18.23V84.7l72,41.56V91.53C171.11,82.93,164.07,76.56,161,80.53Z"/><path class="cls-6" d="M151.48,86.07c-2.3,3-2.93,11.79-5.26,13.77-2.12,1.79-5.19-.71-7-5.1-3.15-7.8-4.5-21.4-5.56-26.38-2.95-13.78-9.32-14-10.94-5.39-.76,4-3.7,30.11-11.11,25.82-6-3.48-6.75-12.23-9-19.67-.84-2.83-4.52-8.24-7.77-5.36-2.65,2.37-5,15-5.3,18.23v8.26l72,41.55V97.07C161.61,88.48,154.57,82.1,151.48,86.07Z"/><rect class="cls-7" x="89.5" y="32.75" width="0.25" height="57.5"/><rect class="cls-7" x="103.9" y="41.06" width="0.25" height="57.5"/><rect class="cls-7" x="118.29" y="49.37" width="0.25" height="57.5"/><rect class="cls-7" x="132.69" y="57.68" width="0.25" height="57.5"/><rect class="cls-7" x="147.09" y="66" width="0.25" height="57.5"/><rect class="cls-7" x="161.49" y="74.31" width="0.25" height="57.5"/><path class="cls-7" d="M89.62,84h-.11a.38.38,0,0,1-.24-.48L98,57.08a.38.38,0,0,1,.47-.24.38.38,0,0,1,.24.48L90,83.7A.38.38,0,0,1,89.62,84Z"/><path class="cls-7" d="M111,86.43a.39.39,0,0,1-.35-.23L98,57.35a.37.37,0,0,1,.19-.49.39.39,0,0,1,.5.19L111.35,85.9a.36.36,0,0,1-.19.49A.28.28,0,0,1,111,86.43Z"/><path class="cls-7" d="M111,86.43a.41.41,0,0,1-.18-.05.36.36,0,0,1-.15-.5L127.3,54.52a.37.37,0,1,1,.66.35L111.34,86.23A.4.4,0,0,1,111,86.43Z"/><path class="cls-7" d="M142.76,96.63a.36.36,0,0,1-.35-.25L127.28,54.82a.38.38,0,0,1,.23-.48.38.38,0,0,1,.48.22l15.12,41.57a.38.38,0,0,1-.22.48A.32.32,0,0,1,142.76,96.63Z"/><path class="cls-7" d="M142.76,96.63a.4.4,0,0,1-.27-.11.38.38,0,0,1,0-.53l14-13.79a.37.37,0,0,1,.53,0,.38.38,0,0,1,0,.53L143,96.52A.34.34,0,0,1,142.76,96.63Z"/><path class="cls-7" d="M156.76,82.84a.36.36,0,0,1-.26-.11.38.38,0,0,1,0-.53l4.86-4.91a.37.37,0,1,1,.53.53L157,82.73A.4.4,0,0,1,156.76,82.84Z"/><path class="cls-7" d="M112.38,86.84c0,.76-.61,1-1.37.59a2.86,2.86,0,0,1-1.38-2.17c0-.76.62-1,1.38-.58A2.83,2.83,0,0,1,112.38,86.84Z"/><path class="cls-7" d="M99.72,58.5c0,.75-.62,1-1.38.58A2.85,2.85,0,0,1,97,56.91c0-.76.61-1,1.37-.58A2.84,2.84,0,0,1,99.72,58.5Z"/><path class="cls-7" d="M129,56c0,.76-.62,1-1.38.58a2.85,2.85,0,0,1-1.37-2.17c0-.76.61-1,1.37-.58A2.86,2.86,0,0,1,129,56Z"/><path class="cls-7" d="M158.13,83.47c0,.76-.61,1-1.37.59a2.86,2.86,0,0,1-1.38-2.17c0-.76.62-1,1.38-.58A2.81,2.81,0,0,1,158.13,83.47Z"/><path class="cls-7" d="M144.13,96.3c0,.76-.61,1-1.37.58a2.86,2.86,0,0,1-1.38-2.17c0-.76.62-1,1.38-.58A2.85,2.85,0,0,1,144.13,96.3Z"/><g class="cls-8"><path class="cls-9" d="M86.25,42.8a5.41,5.41,0,0,1-1.18,1c-1.24.71-2.32.5-2.85-.41l3.07-1.78V40.32l-3.4,2c0-.15,0-.3,0-.46s0-.32,0-.48l3.4-2V38.15l-3.07,1.77a7.11,7.11,0,0,1,2.85-3.7,3.32,3.32,0,0,1,1.17-.42l.52-1.42a4.37,4.37,0,0,0-1.69.6,10,10,0,0,0-4.17,5.7l-.67.39v1.24l.42-.24a3.85,3.85,0,0,0,0,.48,3.46,3.46,0,0,0,0,.46l-.42.24v1.24l.67-.39c.62,1.56,2.26,2,4.17.88a7.75,7.75,0,0,0,1.7-1.35Z"/><path class="cls-9" d="M153.69,72.69a5.29,5.29,0,0,0-1.46-2.88,11.94,11.94,0,0,0-1-1V66.48c.92.72,1.08,1.17,1.15,1.53l1.21.45a5.4,5.4,0,0,0-2.36-3.24v-.61l-1.24-.72v.56a2.5,2.5,0,0,0-2.14-.22c-.44.27-.57.84-.39,1.65a6.13,6.13,0,0,0,2.53,3.25v2.75c-.16-.13-.3-.25-.4-.35a4,4,0,0,1-1-1.37l-1.22-.52a5.75,5.75,0,0,0,1.76,2.76,8.39,8.39,0,0,0,.86.75v1l1.24.72v-1a2.85,2.85,0,0,0,1.59.27C153.43,74.05,153.76,73.51,153.69,72.69Zm-5.08-6.43c-.08-.36,0-.57.14-.68a1.53,1.53,0,0,1,1.19.12v2.15C149.14,67.2,148.72,66.77,148.61,66.26ZM152,72.74a1.78,1.78,0,0,1-.85-.1V70.13l.51.48a2.8,2.8,0,0,1,.77,1.48A.54.54,0,0,1,152,72.74Z"/><path class="cls-7" d="M128.66,101.85a4.75,4.75,0,0,0-1.1-2.75,1.3,1.3,0,0,0,.66-1.27,5,5,0,0,0-1.87-3.43v-.6l-1.24-.72v.55l-.43-.25v-.54l-1.24-.72v.54h0l-.62-.36-.22-.13V93.4l.22.13v6.29l-.22-.13v1.24l.22.13.62.36,0,0V102l1.24.71v-.54l.43.25v.54l1.24.72v-.56C127.65,103.7,128.66,103.19,128.66,101.85ZM124,94.24l1.78,1A2.41,2.41,0,0,1,127,97.11c0,.65-.52.87-1.17.5l-1.78-1Zm2,7.47-2-1.17V97.82l1.78,1,.25.14a2.84,2.84,0,0,1,1.36,2.15C127.42,101.88,126.81,102.14,126.06,101.71Z"/></g><polygon class="cls-10" points="27.41 117.51 76.29 150.73 116.17 119.33 70.11 92.83 27.41 117.51"/><path class="cls-11" d="M76.29,29.66,70,26.73h0a2.85,2.85,0,0,0-2.69.36L29.8,48.76a7.59,7.59,0,0,0-3.67,5.78v61a2.09,2.09,0,0,0,.73,1.75h0l.07,0a1.61,1.61,0,0,0,.48.22l6.09,2.86.45-5.73L67.31,95.38A7.6,7.6,0,0,0,71,89.59V33.75Z"/><path class="cls-12" d="M77.49,31.68V92.62a7.6,7.6,0,0,1-3.67,5.79L36.31,120.07c-2,1.16-3.67.47-3.67-1.56V57.57a7.63,7.63,0,0,1,3.67-5.79L73.82,30.13C75.85,29,77.49,29.65,77.49,31.68Z"/><path class="cls-3" d="M77.49,31.68V33.1L32.64,59V57.57a7.63,7.63,0,0,1,3.67-5.79L73.82,30.13C75.85,29,77.49,29.65,77.49,31.68Z"/><path class="cls-9" d="M36.17,61.73l-.45.26V60.33l-.18.1v0l.24-.78.39-.22Z"/><path class="cls-9" d="M38.06,60.43c0,.14-.1.26-.28.37l-1,.55c-.19.11-.28.09-.28-.06V59.37c0-.15.1-.27.28-.38l1-.55c.18-.1.28-.08.28.06Zm-.45.17V58.84l-.61.35V61Z"/><path class="cls-9" d="M39.93,59.35c0,.14-.09.26-.28.37l-.95.55c-.18.11-.28.09-.28-.06V58.29c0-.15.1-.27.28-.38l.95-.55c.19-.1.28-.08.28.06Zm-.45.17V57.76l-.6.35v1.76Z"/><path class="cls-9" d="M41.8,58.26c0,.15-.09.27-.28.38l-1,.55c-.18.11-.28.09-.28-.06V57.21c0-.15.1-.27.28-.38l1-.55c.19-.1.28-.08.28.06Zm-.45.18V56.68l-.6.35v1.76Z"/><path class="cls-9" d="M46.14,56l-.45.26V54.57l-.17.1v-.05l.23-.78.39-.23Z"/><path class="cls-9" d="M47.09,55.43l-.45.26V54l-.18.11v-.05l.24-.79.39-.22Z"/><path class="cls-9" d="M48,54.88l-.45.26V53.48l-.18.1v0l.24-.79.39-.22Z"/><path class="cls-9" d="M56.6,49.72c0,.15-.1.27-.28.38l-1,.55q-.27.15-.27-.06V48.67a.44.44,0,0,1,.28-.38l1-.55c.18-.11.28-.09.28.06Zm-.45.17V48.14l-.61.35v1.75Z"/><path class="cls-9" d="M58.47,48.64c0,.15-.09.27-.28.38l-.95.55c-.19.1-.28.08-.28-.06V47.58a.45.45,0,0,1,.28-.37l.95-.55c.19-.11.28-.09.28.06Zm-.45.17V47.06l-.61.35v1.75Z"/><path class="cls-9" d="M60.34,47.56c0,.15-.09.27-.28.38l-1,.55c-.18.1-.28.08-.28-.06V46.5a.45.45,0,0,1,.28-.37l1-.55c.19-.11.28-.09.28.06Zm-.45.17V46l-.6.35v1.75Z"/><path class="cls-9" d="M62.21,46.48c0,.15-.09.27-.28.38l-1,.55q-.27.15-.27-.06V45.42a.44.44,0,0,1,.27-.37l1-.55c.19-.11.28-.09.28.06Zm-.45.17V44.9l-.6.35V47Z"/><path class="cls-9" d="M65,45.08l-.45.26V43.68l-.17.1v0l.23-.79.39-.22Z"/><path class="cls-9" d="M66.89,43.78a.44.44,0,0,1-.27.37l-1,.55q-.27.16-.27-.06V42.72a.46.46,0,0,1,.28-.38l1-.55q.27-.15.27.06Zm-.45.17V42.2l-.6.35V44.3Z"/><path class="cls-9" d="M67.81,43.46l-.44.26V42.06l-.18.1v0l.24-.78.38-.23Z"/><path class="cls-9" d="M69.71,42.15c0,.15-.1.27-.28.38l-1,.55c-.18.1-.27.09-.27-.06V41.1c0-.15.09-.27.28-.38l1-.55c.18-.11.28-.09.28.06Zm-.45.17V40.57l-.61.35v1.75Z"/><path class="cls-9" d="M70.63,41.84l-.45.26V40.43l-.18.11v0l.24-.79.39-.22Z"/><path class="cls-9" d="M72.52,40.53a.44.44,0,0,1-.28.37l-.95.56c-.18.1-.28.08-.28-.06V39.47a.48.48,0,0,1,.28-.38l.95-.54c.19-.11.28-.09.28.05Zm-.45.17V39l-.61.35v1.75Z"/><path class="cls-9" d="M73.44,40.21l-.45.26V38.81l-.18.1v0l.24-.78.39-.23Z"/><path class="cls-9" d="M36.17,65.44l-.45.26V64l-.18.1v0l.24-.79.39-.22Z"/><path class="cls-9" d="M37.11,64.89l-.45.26V63.49l-.18.1v-.05l.24-.78.39-.23Z"/><path class="cls-9" d="M38.05,64.35l-.45.26V63l-.18.1v0l.24-.78.39-.23Z"/><path class="cls-9" d="M39,63.8l-.45.26V62.4l-.18.1v0l.24-.79.39-.22Z"/><path class="cls-9" d="M40.88,62.5a.44.44,0,0,1-.28.37l-1,.55c-.18.11-.27.09-.27-.05V61.44a.46.46,0,0,1,.28-.38l.94-.55c.19-.1.28-.08.28.06Zm-.45.17V60.92l-.6.35V63Z"/><path class="cls-9" d="M41.8,62.18l-.45.26V60.78l-.17.1v-.05l.23-.78.39-.23Z"/><path class="cls-9" d="M45.23,60.2l-.45.26V58.8l-.18.1v0l.24-.79.39-.22Z"/><path class="cls-9" d="M46.17,59.66l-.45.26V58.26l-.18.1v0l.24-.78.39-.23Z"/><path class="cls-9" d="M48.06,58.35c0,.15-.09.27-.28.38l-1,.55c-.18.1-.27.09-.27-.06V57.3a.45.45,0,0,1,.27-.38l1-.55c.19-.11.28-.09.28.06Zm-.45.17V56.77l-.6.35v1.75Z"/><path class="cls-9" d="M49.93,57.27c0,.15-.09.27-.28.38l-.95.55q-.27.15-.27-.06V56.22c0-.15.09-.27.28-.38l.94-.55c.19-.11.28-.09.28.06Zm-.45.17V55.69l-.6.35v1.75Z"/><path class="cls-9" d="M50.85,57l-.45.26V55.55l-.17.1v0l.23-.79.39-.22Z"/><path class="cls-9" d="M52.74,55.65a.44.44,0,0,1-.27.37l-1,.56q-.27.15-.27-.06V54.59a.46.46,0,0,1,.28-.38l.95-.54c.18-.11.27-.09.27,0Zm-.45.17V54.07l-.6.35v1.75Z"/><path class="cls-9" d="M56.48,53.49a.44.44,0,0,1-.27.37l-1,.56q-.27.15-.27-.06V52.43a.46.46,0,0,1,.28-.38l1-.54c.18-.11.27-.09.27.05Zm-.44.17V51.91l-.61.35V54Z"/><path class="cls-9" d="M57.41,53.17l-.45.26V51.77l-.18.1v0L57,51l.39-.23Z"/><path class="cls-9" d="M59.3,51.86c0,.15-.09.27-.28.38l-1,.55c-.19.11-.28.09-.28-.06V50.81c0-.15.1-.27.28-.38l1-.55c.19-.1.28-.09.28.06Zm-.45.18V50.28l-.61.35v1.76Z"/><path class="cls-9" d="M61.17,50.78c0,.15-.09.27-.28.38l-1,.55c-.18.11-.28.09-.28-.06V49.73c0-.15.1-.27.28-.38l1-.55c.19-.1.28-.09.28.06Zm-.45.18V49.2l-.6.35V51.3Z"/><path class="cls-9" d="M62.09,50.47l-.45.26V49.06l-.18.11v-.05l.24-.79.39-.22Z"/><path class="cls-9" d="M65.85,48.08a.47.47,0,0,1-.27.38l-1,.55q-.27.15-.27-.06V47a.44.44,0,0,1,.28-.37l1-.55q.27-.16.27.06Zm-.45.17V46.5l-.6.35V48.6Z"/><path class="cls-9" d="M67.72,47a.47.47,0,0,1-.27.38l-1,.55q-.27.15-.27-.06V45.94a.44.44,0,0,1,.28-.37l1-.55c.18-.11.27-.09.27,0Zm-.44.17V45.42l-.61.35v1.75Z"/><path class="cls-9" d="M69.59,45.92a.44.44,0,0,1-.27.37l-1,.56q-.27.15-.27-.06V44.86a.46.46,0,0,1,.28-.38l.95-.54c.18-.11.27-.09.27.05Zm-.44.17V44.34l-.61.35v1.75Z"/><path class="cls-9" d="M36.17,69.14l-.45.26V67.73l-.18.11v0l.24-.79.39-.22Z"/><path class="cls-9" d="M38.06,67.83a.48.48,0,0,1-.28.38l-1,.55c-.19.1-.28.08-.28-.06V66.77a.45.45,0,0,1,.28-.37l1-.55c.18-.11.28-.09.28.05Zm-.45.17V66.25L37,66.6v1.75Z"/><path class="cls-9" d="M39.93,66.75a.46.46,0,0,1-.28.38l-.95.55c-.18.1-.28.08-.28-.06V65.69a.45.45,0,0,1,.28-.37l.95-.55c.19-.11.28-.09.28,0Zm-.45.17V65.17l-.6.35v1.75Z"/><path class="cls-9" d="M40.85,66.43l-.45.26V65l-.18.1v0l.24-.78.39-.22Z"/><path class="cls-9" d="M41.79,65.89l-.45.26V64.49l-.18.1v0l.24-.78.39-.23Z"/><path class="cls-9" d="M46.16,63.15a.44.44,0,0,1-.27.37l-1,.56q-.27.15-.27-.06V62.09a.46.46,0,0,1,.28-.38l1-.54c.18-.11.27-.09.27,0Zm-.44.17V61.57l-.61.35v1.75Z"/><path class="cls-9" d="M47.09,62.83l-.45.26V61.43l-.18.1v-.05l.24-.78.39-.23Z"/><path class="cls-9" d="M49,61.53c0,.14-.1.26-.28.37l-1,.55c-.19.11-.28.09-.28-.06V60.47c0-.15.1-.27.28-.38l1-.55c.18-.1.28-.08.28.06Zm-.45.17V59.94l-.61.35v1.76Z"/><path class="cls-9" d="M50.85,60.45c0,.14-.09.26-.28.37l-1,.55c-.18.11-.28.09-.28-.06V59.39c0-.15.1-.27.28-.38l1-.55c.19-.1.28-.08.28.06Zm-.45.17V58.86l-.61.35V61Z"/><path class="cls-9" d="M51.77,60.13l-.45.26V58.72l-.18.11v0l.24-.78.39-.23Z"/><path class="cls-9" d="M56.76,57.25l-.45.26V55.84l-.18.11V55.9l.24-.79.39-.22Z"/><path class="cls-9" d="M58.65,55.94a.46.46,0,0,1-.28.38l-.95.55q-.27.15-.27-.06V54.88a.44.44,0,0,1,.27-.37l.95-.55c.19-.11.28-.09.28,0Zm-.45.17V54.36l-.6.35v1.75Z"/><path class="cls-9" d="M60.52,54.86a.47.47,0,0,1-.27.38l-1,.55q-.27.15-.27-.06V53.8a.44.44,0,0,1,.28-.37l1-.55c.18-.11.27-.09.27,0Zm-.45.17V53.28l-.6.35v1.75Z"/><path class="cls-9" d="M62.39,53.78a.44.44,0,0,1-.27.37l-1,.56q-.27.15-.27-.06V52.72a.46.46,0,0,1,.28-.38l.95-.54c.18-.11.27-.09.27.05Zm-.45.17V52.2l-.6.35V54.3Z"/><path class="cls-9" d="M65.83,51.8c0,.14-.09.26-.28.37l-1,.55q-.27.16-.27-.06V50.74a.45.45,0,0,1,.27-.38l1-.55c.19-.1.28-.08.28.06Zm-.45.17V50.21l-.6.35v1.76Z"/><path class="cls-9" d="M67.7,50.71c0,.15-.09.27-.28.38l-1,.55q-.27.16-.27-.06V49.66a.45.45,0,0,1,.27-.38l1-.55c.19-.1.28-.08.28.06Zm-.45.18V49.13l-.6.35v1.76Z"/><path class="cls-9" d="M68.62,50.4l-.45.26V49l-.17.1v-.05l.23-.78.39-.23Z"/><path class="cls-9" d="M70.51,49.09a.45.45,0,0,1-.27.38l-1,.55Q69,50.17,69,50V48a.44.44,0,0,1,.28-.37l.95-.55q.27-.16.27.06Zm-.45.17V47.51l-.6.35v1.75Z"/><path class="cls-9" d="M71.43,48.77,71,49V47.37l-.17.1v0l.23-.79.39-.22Z"/><path class="cls-9" d="M73.33,47.47a.45.45,0,0,1-.28.37l-1,.55q-.27.16-.27-.06V46.41A.46.46,0,0,1,72.1,46l1-.55c.18-.1.28-.08.28.06Zm-.45.17V45.89l-.61.35V48Z"/><path class="cls-9" d="M74.25,47.15l-.45.26V45.75l-.18.1V45.8l.24-.78.39-.23Z"/><path class="cls-9" d="M37.12,72.08c0,.14-.1.26-.28.37l-1,.55q-.27.16-.27-.06V71c0-.15.09-.27.28-.38l1-.55c.18-.1.28-.08.28.06Zm-.45.17V70.5l-.61.34V72.6Z"/><path class="cls-9" d="M38,71.76l-.45.26V70.36l-.18.1v0l.24-.78L38,69.4Z"/><path class="cls-9" d="M39.93,70.45c0,.15-.09.27-.28.38l-.95.55c-.18.1-.28.08-.28-.06V69.39c0-.14.1-.26.28-.37l.95-.55c.19-.11.28-.09.28.06Zm-.45.17V68.87l-.6.35V71Z"/><path class="cls-9" d="M40.85,70.14l-.45.26V68.73l-.18.1v0l.24-.79.39-.22Z"/><path class="cls-9" d="M46.16,66.85a.45.45,0,0,1-.27.38l-1,.55q-.27.15-.27-.06V65.79a.44.44,0,0,1,.28-.37l1-.55q.27-.16.27.06Zm-.44.17V65.27l-.61.35v1.75Z"/><path class="cls-9" d="M47.09,66.54l-.45.25V65.13l-.18.1v0l.24-.79.39-.22Z"/><path class="cls-9" d="M49,65.23a.45.45,0,0,1-.28.37l-1,.55c-.19.11-.28.09-.28-.05V64.17a.48.48,0,0,1,.28-.38l1-.54c.18-.11.28-.09.28,0Zm-.45.17V63.65l-.61.35v1.75Z"/><path class="cls-9" d="M49.9,64.91l-.45.26V63.51l-.18.1v0l.24-.78.39-.23Z"/><path class="cls-9" d="M51.79,63.6c0,.15-.09.27-.28.38l-.95.55c-.18.1-.27.09-.27-.06V62.55a.45.45,0,0,1,.27-.38l.95-.55c.19-.11.28-.09.28.06Zm-.45.18V62l-.6.35v1.75Z"/><path class="cls-9" d="M52.1,63.64l-.45.26V62.24l-.18.1v-.05l.24-.78.39-.23Z"/><path class="cls-9" d="M54.91,62l-.45.26V60.61l-.17.1v0l.23-.79.39-.22Z"/><path class="cls-9" d="M56.8,60.71a.44.44,0,0,1-.27.37l-1,.56q-.27.15-.27-.06V59.65a.46.46,0,0,1,.28-.38l1-.54c.18-.11.27-.09.27.05Zm-.45.17V59.13l-.6.35v1.75Z"/><path class="cls-9" d="M57.72,60.39l-.44.26V59l-.18.1V59l.24-.78.38-.22Z"/><path class="cls-9" d="M59.62,59.08c0,.15-.1.27-.28.38l-1,.55q-.27.16-.27-.06V58c0-.15.1-.27.28-.38l1-.55c.18-.1.28-.08.28.06Zm-.45.18V57.5l-.61.35v1.76Z"/><path class="cls-9" d="M60.54,58.77l-.45.26V57.37l-.18.1v0l.24-.78.39-.23Z"/><path class="cls-9" d="M62.43,57.46c0,.15-.09.27-.28.38l-.95.55c-.18.1-.28.08-.28-.06V56.4A.45.45,0,0,1,61.2,56l.95-.55c.19-.11.28-.09.28.06Zm-.45.17V55.88l-.6.35V58Z"/><path class="cls-9" d="M65.85,55.48a.45.45,0,0,1-.27.38l-1,.55q-.27.17-.27-.06V54.43c0-.15.09-.27.28-.38l1-.55q.27-.15.27.06Zm-.45.18V53.9l-.6.35V56Z"/><path class="cls-9" d="M66.77,55.17l-.45.26V53.76l-.17.11v0l.23-.78.39-.23Z"/><path class="cls-9" d="M68.66,53.86a.47.47,0,0,1-.27.38l-1,.55q-.27.15-.27-.06V52.8a.44.44,0,0,1,.28-.37l1-.55q.27-.16.27.06Zm-.44.17V52.28l-.61.35v1.75Z"/><path class="cls-9" d="M69.59,53.54l-.45.26V52.14l-.18.1v0l.24-.79.39-.22Z"/><path class="cls-9" d="M71.48,52.24a.44.44,0,0,1-.28.37l-1,.55c-.18.11-.28.09-.28-.06V51.18a.48.48,0,0,1,.28-.38l1-.55c.19-.1.28-.08.28.06Zm-.45.17V50.66l-.61.35v1.75Z"/><path class="cls-9" d="M72.4,51.92l-.45.26V50.52l-.18.1v0l.24-.78.39-.23Z"/><path class="cls-9" d="M74.29,50.61c0,.15-.09.27-.28.38l-1,.55c-.18.1-.27.09-.27-.06V49.56a.45.45,0,0,1,.27-.38l1-.55c.19-.11.28-.09.28.06Zm-.45.18V49l-.6.35v1.75Z"/><path class="cls-9" d="M36.17,76.54l-.45.26V75.14l-.18.1v0l.24-.78.39-.23Z"/><path class="cls-9" d="M38.06,75.24c0,.14-.1.26-.28.37l-1,.55c-.19.11-.28.09-.28-.06V74.18c0-.15.1-.27.28-.38l1-.55c.18-.1.28-.08.28.06Zm-.45.17V73.65L37,74v1.76Z"/><path class="cls-9" d="M39,74.92l-.45.26V73.51l-.18.11v-.05l.24-.78.39-.23Z"/><path class="cls-9" d="M40.87,73.61a.46.46,0,0,1-.28.38l-1,.55q-.27.15-.27-.06V72.55a.44.44,0,0,1,.27-.37l1-.55c.19-.11.28-.09.28.06Zm-.45.17V72l-.6.35v1.75Z"/><path class="cls-9" d="M41.79,73.29l-.45.26V71.89l-.18.1v0l.24-.79.39-.22Z"/><path class="cls-9" d="M45.21,71.32l-.45.26V69.91l-.17.11v0l.24-.79.38-.22Z"/><path class="cls-9" d="M47.11,70a.48.48,0,0,1-.28.38l-.95.55c-.19.1-.28.08-.28-.06V69a.45.45,0,0,1,.28-.37l.95-.55c.18-.11.28-.09.28,0Zm-.45.17V68.43l-.61.35v1.75Z"/><path class="cls-9" d="M48,69.69l-.45.26V68.29l-.18.1v0l.24-.79.39-.22Z"/><path class="cls-9" d="M49.92,68.39a.44.44,0,0,1-.28.37l-1,.55c-.18.11-.28.09-.28-.06V67.33c0-.15.1-.27.28-.38l1-.55c.19-.1.28-.08.28.06Zm-.45.17V66.81l-.6.35v1.75Z"/><path class="cls-9" d="M51.79,67.31a.44.44,0,0,1-.28.37l-.95.55q-.27.17-.27-.06V66.25a.45.45,0,0,1,.27-.38l.95-.55c.19-.1.28-.08.28.06Zm-.45.17V65.73l-.6.35v1.75Z"/><path class="cls-9" d="M60.43,62.53l-.45.26V61.13l-.18.1v0L60,60.4l.39-.22Z"/><path class="cls-9" d="M62.32,61.23a.44.44,0,0,1-.28.37l-.95.55q-.27.16-.27-.06V60.17a.47.47,0,0,1,.27-.38l.95-.55c.19-.1.28-.08.28.06Zm-.45.17V59.65l-.6.35v1.75Z"/><path class="cls-9" d="M65.21,59.77l-.45.26V58.37l-.18.1v0l.24-.79.39-.22Z"/><path class="cls-9" d="M66.15,59.23l-.45.26V57.83l-.17.1v0l.23-.78.39-.23Z"/><path class="cls-9" d="M68,57.92a.45.45,0,0,1-.27.38l-1,.55q-.27.15-.27-.06V56.87c0-.15.09-.27.28-.38l1-.55q.27-.16.27.06Zm-.45.17V56.34l-.6.35v1.75Z"/><path class="cls-9" d="M69,57.61l-.45.26V56.2l-.17.1v0l.23-.79.39-.22Z"/><path class="cls-9" d="M70.85,56.3a.44.44,0,0,1-.27.37l-1,.56q-.27.15-.27-.06V55.24a.46.46,0,0,1,.28-.38l1-.54c.18-.11.27-.09.27,0Zm-.44.17V54.72l-.61.35v1.75Z"/><path class="cls-9" d="M72.73,55.22a.45.45,0,0,1-.28.37l-1,.56q-.27.15-.27-.06V54.16a.46.46,0,0,1,.28-.38l1-.54c.18-.11.28-.09.28,0Zm-.45.17V53.64l-.61.35v1.75Z"/><path class="cls-9" d="M74.6,54.14a.45.45,0,0,1-.28.37l-.95.56c-.19.1-.28.08-.28-.06V53.08a.48.48,0,0,1,.28-.38l.95-.54c.18-.11.28-.09.28.05Zm-.45.17V52.56l-.61.35v1.75Z"/><path class="cls-9" d="M36.17,80.25l-.45.25V78.84l-.18.1v0l.24-.79.39-.22Z"/><path class="cls-9" d="M38.06,78.94a.45.45,0,0,1-.28.37l-1,.55c-.19.11-.28.09-.28,0V77.88a.48.48,0,0,1,.28-.38l1-.54c.18-.11.28-.09.28.05Zm-.45.17V77.36l-.61.35v1.75Z"/><path class="cls-9" d="M39.93,77.86a.44.44,0,0,1-.28.37l-.95.55c-.18.11-.28.09-.28,0V76.8a.48.48,0,0,1,.28-.38l.95-.54c.19-.11.28-.09.28.05Zm-.45.17V76.28l-.6.35v1.75Z"/><path class="cls-9" d="M41.8,76.78a.44.44,0,0,1-.28.37l-1,.55c-.18.11-.28.09-.28-.06V75.72a.48.48,0,0,1,.28-.38l1-.55c.19-.1.28-.08.28.06Zm-.45.17V75.2l-.6.35V77.3Z"/><path class="cls-9" d="M45.53,74.84l-.45.26V73.43l-.17.11v-.05l.23-.79.39-.22Z"/><path class="cls-9" d="M47.42,73.53a.44.44,0,0,1-.27.37l-1,.56q-.27.15-.27-.06V72.47a.46.46,0,0,1,.28-.38l.95-.54c.18-.11.27-.09.27,0ZM47,73.7V72l-.61.35v1.75Z"/><path class="cls-9" d="M48.35,73.21l-.45.26V71.81l-.18.1v0l.24-.78.39-.22Z"/><path class="cls-9" d="M50.24,71.91c0,.14-.1.26-.28.37l-1,.55q-.27.17-.27-.06V70.85c0-.15.1-.27.28-.38l1-.55c.18-.1.28-.08.28.06Zm-.45.17V70.33l-.61.34v1.76Z"/><path class="cls-9" d="M65.21,63.48l-.45.26V62.07l-.18.1v0l.24-.79.39-.22Z"/><path class="cls-9" d="M67.1,62.17a.44.44,0,0,1-.28.37l-.95.56q-.27.15-.27-.06V61.11a.46.46,0,0,1,.28-.38l.94-.54c.19-.11.28-.09.28.05Zm-.45.17V60.59l-.6.35v1.75Z"/><path class="cls-9" d="M69,61.09a.44.44,0,0,1-.27.37l-1,.56q-.27.15-.27-.06V60a.46.46,0,0,1,.28-.38l1-.54c.18-.11.27-.09.27,0Zm-.45.17V59.51l-.6.35v1.75Z"/><path class="cls-9" d="M70.84,60a.44.44,0,0,1-.27.37l-1,.55c-.18.11-.27.09-.27,0V59a.46.46,0,0,1,.28-.38l.95-.54c.18-.11.27-.09.27,0Zm-.45.17V58.43l-.6.35v1.75Z"/><path class="cls-9" d="M71.76,59.69l-.45.26V58.29l-.17.1v0l.24-.78.38-.23Z"/><path class="cls-9" d="M73.66,58.38c0,.15-.1.27-.28.38l-1,.55q-.27.16-.27-.06V57.33c0-.15.1-.27.28-.38l.95-.55c.18-.1.28-.09.28.06Zm-.45.18V56.8l-.61.35v1.76Z"/><path class="cls-9" d="M36.17,84l-.45.26V82.54l-.18.11V82.6l.24-.79.39-.22Z"/><path class="cls-9" d="M37.11,83.4l-.45.26V82l-.18.1v0l.24-.78.39-.22Z"/><path class="cls-9" d="M39,82.1a.44.44,0,0,1-.28.37l-.95.55c-.19.11-.28.09-.28-.06V81c0-.15.1-.27.28-.38l.95-.55c.19-.1.28-.08.28.06Zm-.45.17V80.52l-.6.34v1.76Z"/><path class="cls-9" d="M40.87,81c0,.14-.09.26-.28.37l-1,.55q-.27.16-.27-.06V80a.45.45,0,0,1,.27-.38l1-.55c.19-.1.28-.08.28.06Zm-.45.17V79.44l-.6.34v1.76Z"/><path class="cls-9" d="M46.16,78a.44.44,0,0,1-.27.37l-1,.55c-.18.11-.27.09-.27,0V76.9a.46.46,0,0,1,.28-.38l1-.54c.18-.11.27-.09.27,0Zm-.44.17V76.38l-.61.35v1.75Z"/><path class="cls-9" d="M47.09,77.64l-.45.26V76.24l-.18.1v0l.24-.78.39-.23Z"/><path class="cls-9" d="M49,76.33c0,.15-.1.27-.28.38l-1,.55c-.19.11-.28.09-.28-.06V75.28c0-.15.1-.27.28-.38l1-.55c.18-.1.28-.09.28.06Zm-.45.18V74.75l-.61.35v1.76Z"/><path class="cls-9" d="M49.9,76l-.45.26V74.61l-.18.11v0l.24-.79.39-.22Z"/><path class="cls-9" d="M51.79,74.71a.46.46,0,0,1-.28.38l-.95.55q-.27.15-.27-.06V73.65a.44.44,0,0,1,.27-.37l.95-.55c.19-.11.28-.09.28.06Zm-.45.17V73.13l-.6.35v1.75Z"/><path class="cls-9" d="M56.78,71.83a.46.46,0,0,1-.28.38l-1,.55q-.27.15-.27-.06V70.77a.44.44,0,0,1,.27-.37l1-.55c.19-.11.28-.09.28.06Zm-.45.17V70.25l-.6.35v1.75Z"/><path class="cls-9" d="M57.7,71.51l-.45.26V70.11l-.18.1v0l.24-.79.39-.22Z"/><path class="cls-9" d="M59.59,70.21c0,.14-.09.26-.27.37l-1,.55q-.27.16-.27-.06V69.15c0-.15.09-.27.28-.38l1-.55q.27-.15.27.06Zm-.45.17V68.63l-.6.34v1.76Z"/><path class="cls-9" d="M60.51,69.89l-.45.26V68.49l-.17.1v0l.23-.78.39-.23Z"/><path class="cls-9" d="M62.4,68.58a.45.45,0,0,1-.27.38l-1,.55q-.27.15-.27-.06V67.53a.44.44,0,0,1,.28-.38l1-.55q.27-.16.27.06Zm-.44.17V67l-.61.35V69.1Z"/><path class="cls-9" d="M65.22,67.17l-.45.26V65.77l-.18.1v-.05l.24-.78.39-.23Z"/><path class="cls-9" d="M66.16,66.63l-.45.26V65.22l-.17.11v0l.23-.78.39-.23Z"/><path class="cls-9" d="M68.05,65.32a.47.47,0,0,1-.27.38l-1,.55q-.27.15-.27-.06V64.26a.44.44,0,0,1,.28-.37l1-.55q.27-.17.27.06Zm-.44.17V63.74l-.61.35v1.75Z"/><path class="cls-9" d="M69,65l-.45.26V63.6l-.18.1v0l.24-.79.39-.22Z"/><path class="cls-9" d="M70.87,63.7a.45.45,0,0,1-.28.37l-1,.55q-.27.16-.27-.06V62.64a.48.48,0,0,1,.28-.38l1-.55c.18-.1.28-.08.28.06Zm-.45.17V62.12l-.61.35v1.75Z"/><path class="cls-9" d="M72.74,62.62a.44.44,0,0,1-.28.37l-.95.55c-.19.11-.28.09-.28-.06V61.56a.48.48,0,0,1,.28-.38l.95-.55c.19-.1.28-.08.28.06Zm-.45.17V61l-.61.35v1.75Z"/><path class="cls-9" d="M36.17,87.65l-.45.26V86.25l-.18.1v0l.24-.78.39-.23Z"/><path class="cls-9" d="M37.11,87.11l-.45.26V85.7l-.18.1v0l.24-.79.39-.22Z"/><path class="cls-9" d="M38.05,86.56l-.45.26V85.16l-.18.1v-.05l.24-.78.39-.22Z"/><path class="cls-9" d="M39.94,85.25c0,.15-.09.27-.28.38l-.95.55q-.27.16-.27-.06V84.2a.45.45,0,0,1,.27-.38l.95-.55c.19-.1.28-.08.28.06Zm-.45.18V83.67l-.6.35v1.76Z"/><path class="cls-9" d="M41.81,84.17c0,.15-.09.27-.28.38l-1,.55q-.27.16-.27-.06V83.12a.45.45,0,0,1,.27-.38l1-.55c.19-.1.28-.08.28.06Zm-.45.18V82.59l-.6.35V84.7Z"/><path class="cls-9" d="M45.21,82.42l-.45.26V81l-.17.1v0l.24-.79.38-.22Z"/><path class="cls-9" d="M47.11,81.12a.45.45,0,0,1-.28.37l-.95.55c-.19.11-.28.09-.28-.05V80.06a.48.48,0,0,1,.28-.38l.95-.55c.18-.1.28-.08.28.06Zm-.45.17V79.54l-.61.35v1.75Z"/><path class="cls-9" d="M49,80a.45.45,0,0,1-.28.37l-1,.55c-.19.11-.28.09-.28,0V79c0-.15.1-.27.28-.38l1-.55c.18-.1.28-.08.28.06Zm-.45.17V78.46l-.61.35v1.75Z"/><path class="cls-9" d="M50.85,79a.44.44,0,0,1-.28.37l-1,.55c-.18.11-.28.09-.28,0V77.9c0-.15.1-.27.28-.38l1-.55c.19-.1.28-.08.28.06Zm-.45.17V77.38l-.61.35v1.75Z"/><path class="cls-9" d="M59.6,73.9a.45.45,0,0,1-.27.38l-1,.55q-.27.15-.27-.06V72.84a.44.44,0,0,1,.28-.37l.95-.55q.27-.17.27.06Zm-.44.17V72.32l-.61.35v1.75Z"/><path class="cls-9" d="M61.47,72.82a.47.47,0,0,1-.27.38l-1,.55q-.27.15-.27-.06V71.76a.44.44,0,0,1,.28-.37l1-.55q.27-.16.27.06ZM61,73V71.24l-.61.35v1.75Z"/><path class="cls-9" d="M62.4,72.5l-.45.26V71.1l-.18.1v0l.24-.79.39-.22Z"/><path class="cls-9" d="M66.16,70.12a.44.44,0,0,1-.28.37l-.95.55c-.18.11-.27.09-.27-.05V69.06a.47.47,0,0,1,.27-.38l.95-.55c.19-.1.28-.08.28.06Zm-.45.17V68.54l-.6.35v1.75Z"/><path class="cls-9" d="M68,69a.44.44,0,0,1-.28.37l-1,.55q-.27.17-.27-.06V68a.45.45,0,0,1,.27-.38l1-.55c.19-.1.28-.08.28.06Zm-.45.17V67.46l-.6.35v1.75Z"/><path class="cls-9" d="M69,68.72,68.5,69V67.32l-.17.1v0l.23-.78.39-.23Z"/><path class="cls-9" d="M70.84,67.41a.45.45,0,0,1-.27.38l-1,.55q-.27.15-.27-.06V66.36a.44.44,0,0,1,.28-.38l.95-.55q.27-.17.27.06Zm-.45.17V65.83l-.6.35v1.75Z"/><path class="cls-9" d="M72.71,66.33a.45.45,0,0,1-.27.38l-1,.55q-.27.15-.27-.06V65.28a.44.44,0,0,1,.28-.38l1-.55q.27-.16.27.06Zm-.44.17V64.75l-.61.35v1.75Z"/><path class="cls-9" d="M74.58,65.25a.45.45,0,0,1-.27.38l-1,.55q-.27.15-.27-.06V64.2a.44.44,0,0,1,.28-.38l1-.55q.27-.17.27.06Zm-.44.17V63.67l-.61.35v1.75Z"/><path class="cls-9" d="M36.17,91.35l-.45.26V90l-.18.1v0l.24-.78.39-.23Z"/><path class="cls-9" d="M37.11,90.81l-.45.26V89.41l-.18.1v-.05l.24-.78.39-.23Z"/><path class="cls-9" d="M39,89.5c0,.15-.09.27-.28.38l-.95.55c-.19.1-.28.08-.28-.06V88.44a.45.45,0,0,1,.28-.37l.95-.55c.19-.11.28-.09.28.06Zm-.45.17V87.92l-.6.35V90Z"/><path class="cls-9" d="M40.87,88.42a.46.46,0,0,1-.28.38l-1,.55q-.27.15-.27-.06V87.36a.44.44,0,0,1,.27-.37l1-.55c.19-.11.28-.09.28.06Zm-.45.17V86.84l-.6.35v1.75Z"/><path class="cls-9" d="M46.48,85.18a.44.44,0,0,1-.27.37l-1,.56q-.27.15-.27-.06V84.12a.44.44,0,0,1,.28-.37l1-.55c.18-.11.27-.09.27,0Zm-.45.17V83.6l-.6.35V85.7Z"/><path class="cls-9" d="M48.35,84.1a.44.44,0,0,1-.27.37l-1,.56q-.27.15-.27-.06V83a.44.44,0,0,1,.28-.37l.95-.55c.18-.11.27-.09.27,0Zm-.44.17V82.52l-.61.35v1.75Z"/><path class="cls-9" d="M50.22,83a.44.44,0,0,1-.27.37L49,84q-.27.15-.27-.06V82a.46.46,0,0,1,.28-.38L50,81c.18-.11.27-.09.27,0Zm-.44.17V81.44l-.61.35v1.75Z"/><path class="cls-9" d="M52.1,81.94a.45.45,0,0,1-.28.37l-1,.56q-.27.15-.27-.06V80.88a.48.48,0,0,1,.28-.38l1-.54c.18-.11.28-.09.28.05Zm-.45.17V80.36l-.61.35v1.75Z"/><path class="cls-9" d="M53,81.62l-.45.26V80.22l-.18.1v0l.24-.78.39-.23Z"/><path class="cls-9" d="M58.65,78.15a.45.45,0,0,1-.27.38l-1,.55q-.27.17-.27-.06V77.1c0-.15.09-.27.28-.38l1-.55c.18-.1.27-.09.27.06Zm-.45.18V76.57l-.6.35v1.75Z"/><path class="cls-9" d="M60.52,77.07a.45.45,0,0,1-.27.38l-1,.55q-.27.16-.27-.06V76c0-.15.09-.27.28-.38l1-.55c.18-.1.27-.09.27.06Zm-.45.18V75.49l-.6.35v1.75Z"/><path class="cls-9" d="M62.39,76a.45.45,0,0,1-.27.38l-1,.55q-.27.17-.27-.06V74.94c0-.15.09-.27.28-.38l.95-.55c.18-.1.27-.09.27.06Zm-.45.18V74.41l-.6.35v1.75Z"/><path class="cls-9" d="M66.13,73.83a.45.45,0,0,1-.27.38l-1,.55q-.27.15-.27-.06V72.78c0-.15.09-.27.28-.38l1-.55q.27-.16.27.06Zm-.44.17V72.25l-.61.35v1.75Z"/><path class="cls-9" d="M68,72.75c0,.15-.1.27-.28.38l-1,.55c-.19.1-.28.08-.28-.06V71.7c0-.15.1-.27.28-.38l1-.55c.18-.11.28-.09.28.06Zm-.45.17V71.17l-.61.35v1.75Z"/><path class="cls-9" d="M68.93,72.44l-.45.26V71l-.18.1v0l.24-.79.39-.22Z"/><path class="cls-9" d="M69.87,71.89l-.45.26V70.49l-.18.1v0l.24-.78.39-.22Z"/><path class="cls-9" d="M71.76,70.59c0,.14-.09.26-.28.37l-1,.55q-.27.17-.27-.06V69.53c0-.15.09-.27.28-.38l.94-.55c.19-.1.28-.08.28.06Zm-.45.17V69l-.6.35v1.76Z"/><path class="cls-9" d="M73.63,69.5a.45.45,0,0,1-.27.38l-1,.55q-.27.16-.27-.06V68.45c0-.15.09-.27.28-.38l1-.55q.27-.15.27.06Zm-.45.18V67.92l-.6.35V70Z"/><path class="cls-9" d="M74.55,69.19l-.45.26V67.79l-.17.1v0l.23-.78.39-.23Z"/><path class="cls-9" d="M37.12,94.29a.48.48,0,0,1-.28.38l-1,.55q-.27.15-.27-.06V93.23a.44.44,0,0,1,.28-.37l1-.55c.18-.11.28-.09.28.06Zm-.45.17V92.71l-.61.35v1.75Z"/><path class="cls-9" d="M39,93.21a.45.45,0,0,1-.28.37l-1,.56q-.27.15-.27-.06V92.15a.45.45,0,0,1,.28-.37l1-.55c.18-.11.28-.09.28.06Zm-.45.17V91.63l-.61.35v1.75Z"/><path class="cls-9" d="M39.91,92.89l-.45.26V91.49l-.18.1v0l.24-.79.39-.22Z"/><path class="cls-9" d="M41.8,91.59a.44.44,0,0,1-.28.37l-1,.55c-.18.11-.28.09-.28-.06V90.53c0-.15.1-.27.28-.38l1-.55c.19-.1.28-.08.28.06Zm-.45.17V90l-.6.35v1.75Z"/><path class="cls-9" d="M45.53,89.65l-.45.26V88.24l-.17.1v0l.23-.79.39-.22Z"/><path class="cls-9" d="M47.42,88.34a.44.44,0,0,1-.27.37l-1,.56q-.27.15-.27-.06V87.28a.46.46,0,0,1,.28-.38l.95-.54c.18-.11.27-.09.27,0Zm-.44.17V86.76l-.61.35v1.75Z"/><path class="cls-9" d="M49.29,87.26a.44.44,0,0,1-.27.37l-1,.55c-.18.11-.27.09-.27-.05V86.2a.46.46,0,0,1,.28-.38l1-.54c.18-.11.27-.09.27,0Zm-.44.17V85.68l-.61.35v1.75Z"/><path class="cls-9" d="M51.17,86.18a.45.45,0,0,1-.28.37l-1,.55c-.18.11-.27.09-.27,0V85.12a.48.48,0,0,1,.28-.38l1-.54c.18-.11.28-.09.28,0Zm-.45.17V84.6l-.61.35V86.7Z"/><path class="cls-9" d="M52.09,85.86l-.45.26V84.46l-.18.1v0l.24-.78.39-.23Z"/><path class="cls-9" d="M54,84.55c0,.15-.09.27-.28.38l-1,.55q-.27.17-.27-.06V83.5a.45.45,0,0,1,.27-.38l1-.55c.19-.1.28-.09.28.06Zm-.45.18V83l-.6.35v1.76Z"/><path class="cls-9" d="M54.9,84.24l-.45.26V82.83l-.18.11v0l.24-.79.39-.22Z"/><path class="cls-9" d="M57.71,82.61l-.45.26V81.21l-.17.1v0l.23-.79.39-.22Z"/><path class="cls-9" d="M58.65,82.07l-.44.26V80.67l-.18.1v0l.24-.78.38-.23Z"/><path class="cls-9" d="M59.6,81.53l-.45.26V80.12l-.18.11v0l.24-.79.39-.22Z"/><path class="cls-9" d="M61.49,80.22a.45.45,0,0,1-.28.37l-1,.56c-.19.1-.28.08-.28-.06V79.16a.45.45,0,0,1,.28-.37l1-.55c.18-.11.28-.09.28.05Zm-.45.17V78.64l-.61.35v1.75Z"/><path class="cls-9" d="M62.41,79.9l-.45.26V78.5l-.18.1v0l.24-.78.39-.23Z"/><path class="cls-9" d="M66.18,77.51a.44.44,0,0,1-.27.37l-1,.55c-.18.11-.27.09-.27-.05V76.45a.46.46,0,0,1,.28-.38l1-.54c.18-.11.27-.09.27,0Zm-.45.17V75.93l-.6.35V78Z"/><path class="cls-9" d="M68.05,76.43a.44.44,0,0,1-.27.37l-1,.55c-.18.11-.27.09-.27,0V75.37a.46.46,0,0,1,.28-.38l1-.54c.18-.11.27-.09.27,0Zm-.44.17V74.85L67,75.2V77Z"/><path class="cls-9" d="M69.92,75.35a.44.44,0,0,1-.27.37l-1,.55c-.18.11-.27.09-.27,0V74.29a.46.46,0,0,1,.28-.38l1-.54c.18-.11.27-.09.27,0Zm-.44.17V73.77l-.61.35v1.75Z"/><path class="cls-9" d="M71.8,74.27a.45.45,0,0,1-.28.37l-1,.55c-.18.11-.27.09-.27,0V73.21a.46.46,0,0,1,.28-.38l1-.54c.18-.11.28-.09.28,0Zm-.45.17V72.69l-.61.35v1.75Z"/><path class="cls-9" d="M73.67,73.19a.44.44,0,0,1-.28.37l-1,.55c-.19.11-.28.09-.28,0V72.13a.48.48,0,0,1,.28-.38l1-.54c.19-.11.28-.09.28.05Zm-.45.17V71.61l-.61.35v1.75Z"/><path class="cls-9" d="M74.59,72.87l-.45.26V71.47l-.18.1v0l.24-.78.39-.23Z"/><path class="cls-9" d="M36.17,98.76l-.45.26V97.35l-.18.11v0l.24-.79.39-.22Z"/><path class="cls-9" d="M37.11,98.21l-.45.26V96.81l-.18.1v0l.24-.78.39-.22Z"/><path class="cls-9" d="M38.05,97.67l-.45.26V96.27l-.18.1v-.05l.24-.78.39-.23Z"/><path class="cls-9" d="M39.94,96.36c0,.15-.09.27-.28.38l-.95.55q-.27.15-.27-.06V95.3a.44.44,0,0,1,.27-.37l.95-.55c.19-.11.28-.09.28.06Zm-.45.17V94.78l-.6.35v1.75Z"/><path class="cls-9" d="M41.81,95.28c0,.15-.09.27-.28.38l-1,.55q-.27.15-.27-.06V94.22a.44.44,0,0,1,.27-.37l1-.55c.19-.11.28-.09.28.06Zm-.45.17V93.7l-.6.35V95.8Z"/><path class="cls-9" d="M42.73,95l-.45.26V93.56l-.17.1v0l.23-.79.39-.22Z"/><path class="cls-9" d="M45.61,93.31l-.45.26V91.9L45,92v0l.24-.79.39-.22Z"/><path class="cls-9" d="M47.5,92a.45.45,0,0,1-.28.37l-1,.56q-.27.15-.27-.06V90.94a.48.48,0,0,1,.28-.38l.95-.54c.18-.11.28-.09.28,0Zm-.45.17V90.42l-.61.35v1.75Z"/><path class="cls-9" d="M48.42,91.68l-.45.26V90.28l-.18.1v0l.24-.78.39-.23Z"/><path class="cls-9" d="M49.36,91.14l-.45.26V89.74l-.18.1v0L49,89l.39-.23Z"/><path class="cls-9" d="M50.3,90.59l-.45.27V89.19l-.18.1v0l.24-.79.39-.22Z"/><path class="cls-9" d="M52.19,89.29a.44.44,0,0,1-.27.37l-1,.55c-.18.11-.27.09-.27,0V88.23a.46.46,0,0,1,.28-.38l1-.54c.18-.11.27-.09.27,0Zm-.45.17V87.71l-.6.35v1.75Z"/><path class="cls-9" d="M57.76,86.08c0,.14-.1.26-.28.37l-.95.55c-.19.11-.28.09-.28-.06V85c0-.15.1-.27.28-.38l.95-.55c.18-.1.28-.08.28.06Zm-.45.17V84.5l-.61.34V86.6Z"/><path class="cls-9" d="M58.68,85.76l-.45.26V84.36l-.18.1v0l.24-.78.39-.23Z"/><path class="cls-9" d="M60.57,84.45c0,.15-.09.27-.28.38l-.95.55q-.27.15-.27-.06V83.39a.44.44,0,0,1,.27-.37l.95-.55c.19-.11.28-.09.28.06Zm-.45.17V82.87l-.6.35V85Z"/><path class="cls-9" d="M61.49,84.13l-.45.26V82.73l-.18.1v0L61.1,82l.39-.22Z"/><path class="cls-9" d="M62.43,83.59l-.45.26V82.19l-.17.1v-.05l.23-.78.39-.23Z"/><path class="cls-9" d="M65.25,82l-.46.26V80.56l-.17.11v0l.24-.79.39-.22Z"/><path class="cls-9" d="M67.14,80.66a.48.48,0,0,1-.28.38l-1,.55q-.27.15-.27-.06V79.6a.44.44,0,0,1,.28-.37l1-.55c.18-.11.28-.09.28.06Zm-.45.17V79.08l-.61.35v1.75Z"/><path class="cls-9" d="M69,79.58a.48.48,0,0,1-.28.38l-1,.55c-.19.1-.28.08-.28-.06V78.52a.45.45,0,0,1,.28-.37l1-.55c.18-.11.28-.09.28.05Zm-.45.17V78l-.61.35V80.1Z"/><path class="cls-9" d="M69.93,79.26l-.45.26V77.86l-.18.1v0l.24-.79.39-.22Z"/><path class="cls-9" d="M71.82,78c0,.14-.09.26-.28.37l-1,.55q-.27.16-.27-.06V76.9a.45.45,0,0,1,.27-.38l1-.55c.19-.1.28-.08.28.06Zm-.45.17V76.38l-.6.34v1.76Z"/><path class="cls-9" d="M73.69,76.88c0,.14-.09.26-.28.37l-1,.55q-.27.17-.27-.06V75.82a.45.45,0,0,1,.27-.38l1-.55c.19-.1.28-.08.28.06Zm-.45.17V75.29l-.6.35V77.4Z"/><path class="cls-9" d="M36.17,102.46l-.45.26v-1.66l-.18.1v0l.24-.78.39-.23Z"/><path class="cls-9" d="M38.06,101.15c0,.15-.1.27-.28.38l-1,.55c-.19.1-.28.08-.28-.06v-1.93a.45.45,0,0,1,.28-.37l1-.55c.18-.11.28-.09.28.06Zm-.45.17V99.57l-.61.35v1.75Z"/><path class="cls-9" d="M39.93,100.07a.46.46,0,0,1-.28.38l-.95.55c-.18.1-.28.08-.28-.06V99a.45.45,0,0,1,.28-.37l.95-.55c.19-.11.28-.09.28.06Zm-.45.17V98.49l-.6.35v1.75Z"/><path class="cls-9" d="M40.85,99.75l-.45.26V98.35l-.18.1v0l.24-.79.39-.22Z"/><path class="cls-9" d="M46.87,96.06a.45.45,0,0,1-.27.38l-1,.55q-.27.15-.27-.06V95a.44.44,0,0,1,.28-.37l1-.55q.27-.17.27.06Zm-.45.17V94.48l-.6.35v1.75Z"/><path class="cls-9" d="M47.79,95.75l-.45.25V94.34l-.17.1v0l.24-.79.38-.22Z"/><path class="cls-9" d="M49.69,94.44a.45.45,0,0,1-.28.37l-1,.55c-.18.11-.27.09-.27,0V93.38a.48.48,0,0,1,.28-.38l.95-.54c.18-.11.28-.09.28.05Zm-.45.17V92.86l-.61.35V95Z"/><path class="cls-9" d="M51.56,93.36a.45.45,0,0,1-.28.37l-1,.55c-.19.11-.28.09-.28-.06V92.3a.48.48,0,0,1,.28-.38l1-.55c.18-.1.28-.08.28.06Zm-.45.17V91.78l-.61.35v1.75Z"/><path class="cls-9" d="M58.65,89.26c0,.15-.09.27-.28.38l-.95.55q-.27.15-.27-.06V88.2a.44.44,0,0,1,.27-.37l.95-.55c.19-.11.28-.09.28.06Zm-.45.17V87.68l-.6.35v1.75Z"/><path class="cls-9" d="M60.52,88.18a.45.45,0,0,1-.27.38l-1,.55q-.27.15-.27-.06V87.12a.44.44,0,0,1,.28-.37l1-.55q.27-.17.27.06Zm-.45.17V86.6l-.6.35V88.7Z"/><path class="cls-9" d="M62.39,87.1a.45.45,0,0,1-.27.38l-1,.55q-.27.15-.27-.06V86a.44.44,0,0,1,.28-.37l.95-.55q.27-.16.27.06Zm-.45.17V85.52l-.6.35v1.75Z"/><path class="cls-9" d="M66.13,84.94a.47.47,0,0,1-.27.38l-1,.55q-.27.15-.27-.06V83.88a.44.44,0,0,1,.28-.37l1-.55q.27-.17.27.06Zm-.44.17V83.36l-.61.35v1.75Z"/><path class="cls-9" d="M68,83.86a.48.48,0,0,1-.28.38l-1,.55q-.27.15-.27-.06V82.8a.45.45,0,0,1,.28-.37l1-.55c.18-.11.28-.09.28.05Zm-.45.17V82.28l-.61.35v1.75Z"/><path class="cls-9" d="M68.93,83.54l-.45.26V82.14l-.18.1v0l.24-.79.39-.22Z"/><path class="cls-9" d="M70.82,82.24c0,.14-.09.26-.28.37l-1,.55q-.27.16-.27-.06V81.18a.45.45,0,0,1,.27-.38l1-.55c.19-.1.28-.08.28.06Zm-.45.17V80.66l-.6.34v1.76Z"/><path class="cls-9" d="M71.74,81.92l-.45.26V80.52l-.18.1v-.05l.24-.78.39-.23Z"/><path class="cls-9" d="M73.63,80.61a.45.45,0,0,1-.27.38l-1,.55q-.27.15-.27-.06V79.55c0-.14.09-.26.28-.37l1-.55q.27-.16.27.06Zm-.45.17V79l-.6.35v1.75Z"/><path class="cls-9" d="M74.55,80.3l-.45.26V78.89l-.17.1v0l.23-.79.39-.22Z"/><path class="cls-9" d="M37.12,105.4a.45.45,0,0,1-.28.37l-1,.55c-.18.11-.27.09-.27,0v-1.93a.46.46,0,0,1,.28-.38l1-.54c.18-.11.28-.09.28,0Zm-.45.17v-1.75l-.61.35v1.75Z"/><path class="cls-9" d="M38,105.08l-.45.26v-1.66l-.18.1v0l.24-.78.39-.23Z"/><path class="cls-9" d="M45.92,100.53l-.45.26V99.12l-.17.11v0l.23-.79.39-.22Z"/><path class="cls-9" d="M47.81,99.22a.44.44,0,0,1-.27.37l-1,.56q-.27.15-.27-.06V98.16a.44.44,0,0,1,.28-.37l.95-.55c.18-.11.27-.09.27.05Zm-.44.17V97.64l-.61.35v1.75Z"/><path class="cls-9" d="M48.74,98.9l-.45.26V97.5l-.18.1v0l.24-.79.39-.22Z"/><path class="cls-9" d="M50.63,97.6a.44.44,0,0,1-.28.37l-1,.55c-.19.11-.28.09-.28-.06V96.54c0-.15.1-.27.28-.38l1-.55c.19-.1.28-.08.28.06Zm-.45.17V96l-.61.35v1.75Z"/><path class="cls-9" d="M51.55,97.28l-.45.26V95.88l-.18.1v0l.24-.78.39-.23Z"/><path class="cls-9" d="M57.72,93.71l-.44.26V92.31l-.18.1v0l.24-.79.38-.22Z"/><path class="cls-9" d="M59.62,92.41a.45.45,0,0,1-.28.37l-1,.55q-.27.17-.27-.06V91.35a.48.48,0,0,1,.28-.38l1-.55c.18-.1.28-.08.28.06Zm-.45.17V90.83l-.61.35v1.75Z"/><path class="cls-9" d="M60.54,92.09l-.45.26V90.69l-.18.1v-.05l.24-.78.39-.23Z"/><path class="cls-9" d="M62.43,90.78c0,.15-.09.27-.28.38l-.95.55c-.18.1-.28.08-.28-.06V89.73c0-.15.1-.27.28-.38l.95-.55c.19-.11.28-.09.28.06ZM62,91V89.2l-.6.35V91.3Z"/><path class="cls-9" d="M66.16,88.63a.44.44,0,0,1-.28.37l-.95.56q-.27.15-.27-.06V87.57a.47.47,0,0,1,.27-.38l.95-.54c.19-.11.28-.09.28,0Zm-.45.17V87.05l-.6.35v1.75Z"/><path class="cls-9" d="M67.08,88.31l-.45.26V86.91l-.18.1V87l.24-.78.39-.22Z"/><path class="cls-9" d="M69,87c0,.14-.09.26-.28.37l-1,.55q-.27.16-.27-.06V86c0-.15.09-.27.28-.38l.94-.55c.19-.1.28-.08.28.06Zm-.45.17V85.43l-.6.34v1.76Z"/><path class="cls-9" d="M69.89,86.69l-.45.26V85.29l-.17.1v0l.23-.78.39-.23Z"/><path class="cls-9" d="M71.78,85.38a.45.45,0,0,1-.27.38l-1,.55q-.27.15-.27-.06V84.32a.44.44,0,0,1,.28-.37l1-.55q.27-.16.27.06Zm-.45.17V83.8l-.6.35V85.9Z"/><path class="cls-9" d="M72.71,85.07l-.46.26V83.66l-.17.1v0l.24-.79.39-.22Z"/><path class="cls-9" d="M74.6,83.76a.45.45,0,0,1-.28.37l-1,.55c-.18.11-.27.09-.27-.05V82.7a.48.48,0,0,1,.28-.38l.95-.54c.18-.11.28-.09.28,0Zm-.45.17V82.18l-.61.35v1.75Z"/><path class="cls-9" d="M36.17,109.86l-.45.26v-1.66l-.18.1v0l.24-.78.39-.22Z"/><path class="cls-9" d="M38.06,108.56a.45.45,0,0,1-.28.37l-1,.55c-.19.11-.28.09-.28-.06V107.5c0-.15.1-.27.28-.38l1-.55c.18-.1.28-.08.28.06Zm-.45.17V107l-.61.34v1.76Z"/><path class="cls-9" d="M39,108.24l-.45.26v-1.66l-.18.1v0l.24-.78.39-.23Z"/><path class="cls-9" d="M40.87,106.93c0,.15-.09.27-.28.38l-1,.55q-.27.15-.27-.06v-1.92a.44.44,0,0,1,.27-.38l1-.55c.19-.11.28-.09.28.06Zm-.45.17v-1.75l-.6.35v1.75Z"/><path class="cls-9" d="M41.79,106.62l-.45.26v-1.67l-.18.1v0l.24-.79.39-.22Z"/><path class="cls-9" d="M43.68,105.31a.44.44,0,0,1-.27.37l-1,.55c-.18.11-.27.09-.27,0v-1.93a.46.46,0,0,1,.28-.38l.95-.54c.18-.11.27-.09.27,0Zm-.45.17v-1.75l-.6.35v1.75Z"/><path class="cls-9" d="M46.55,103.65a.44.44,0,0,1-.27.37l-1,.56q-.27.15-.27-.06v-1.93a.46.46,0,0,1,.28-.38l1-.54c.18-.11.27-.09.27,0Zm-.44.17v-1.75l-.61.35v1.75Z"/><path class="cls-9" d="M48.43,102.57a.45.45,0,0,1-.28.37l-.95.56c-.19.1-.28.08-.28-.06v-1.93a.48.48,0,0,1,.28-.38l.95-.54c.18-.11.28-.09.28,0Zm-.45.17V101l-.61.35v1.75Z"/><path class="cls-9" d="M50.3,101.49a.44.44,0,0,1-.28.37l-1,.56c-.19.1-.28.08-.28-.06v-1.93a.48.48,0,0,1,.28-.38l1-.54c.19-.11.28-.09.28,0Zm-.45.17V99.91l-.61.35V102Z"/><path class="cls-9" d="M52.17,100.41a.44.44,0,0,1-.28.37l-1,.55c-.18.11-.28.09-.28,0V99.35a.48.48,0,0,1,.28-.38l1-.54c.19-.11.28-.09.28,0Zm-.45.17V98.83l-.6.35v1.75Z"/><path class="cls-9" d="M57.73,97.2c0,.14-.09.26-.27.37l-1,.55q-.27.16-.27-.06V96.14c0-.15.09-.27.28-.38l1-.55q.27-.15.27.06Zm-.45.17V95.62l-.6.34v1.76Z"/><path class="cls-9" d="M59.6,96.12c0,.14-.09.26-.27.37l-1,.55q-.27.17-.27-.06V95.06c0-.15.09-.27.28-.38l.95-.55q.27-.15.27.06Zm-.44.17V94.54l-.61.34v1.76Z"/><path class="cls-9" d="M61.47,95c0,.14-.09.26-.27.37l-1,.55q-.27.17-.27-.06V94c0-.15.09-.27.28-.38l1-.55q.27-.15.27.06Zm-.44.17V93.46l-.61.34v1.76Z"/><path class="cls-9" d="M62.4,94.72,62,95V93.32l-.18.1v0l.24-.78.39-.23Z"/><path class="cls-9" d="M65.21,93.09l-.45.26V91.69l-.18.1v0l.24-.79.39-.22Z"/><path class="cls-9" d="M66.15,92.55l-.45.26V91.15l-.17.1v0l.23-.78.39-.23Z"/><path class="cls-9" d="M68,91.24a.45.45,0,0,1-.27.38l-1,.55q-.27.17-.27-.06V90.19c0-.15.09-.27.28-.38l1-.55c.18-.1.27-.09.27.06Zm-.45.18V89.66L67,90v1.75Z"/><path class="cls-9" d="M69,90.93l-.45.26V89.52l-.17.11v0l.23-.79.39-.22Z"/><path class="cls-9" d="M70.85,89.62a.47.47,0,0,1-.27.38l-1,.55q-.27.15-.27-.06V88.56a.44.44,0,0,1,.28-.37l1-.55q.27-.17.27.06Zm-.44.17V88l-.61.35v1.75Z"/><path class="cls-9" d="M72.73,88.54a.48.48,0,0,1-.28.38l-1,.55q-.27.15-.27-.06V87.48a.44.44,0,0,1,.28-.37l1-.55c.18-.11.28-.09.28,0Zm-.45.17V87l-.61.35v1.75Z"/><path class="cls-9" d="M74.6,87.46a.45.45,0,0,1-.28.37l-.95.56c-.19.1-.28.08-.28-.06V86.4a.48.48,0,0,1,.28-.38l.95-.54c.18-.11.28-.09.28,0Zm-.45.17V85.88l-.61.35V88Z"/><path class="cls-9" d="M36.17,113.57l-.45.26v-1.67l-.18.1v0l.24-.79.39-.22Z"/><path class="cls-9" d="M38.06,112.26a.45.45,0,0,1-.28.37l-1,.56c-.19.1-.28.08-.28-.06V111.2a.48.48,0,0,1,.28-.38l1-.54c.18-.11.28-.09.28,0Zm-.45.17v-1.75L37,111v1.75Z"/><path class="cls-9" d="M39.93,111.18a.44.44,0,0,1-.28.37l-.95.55c-.18.11-.28.09-.28,0v-1.93a.48.48,0,0,1,.28-.38l.95-.54c.19-.11.28-.09.28,0Zm-.45.17V109.6l-.6.35v1.75Z"/><path class="cls-9" d="M45.59,108.12l-.45.26v-1.66l-.17.1v0l.24-.78.38-.23Z"/><path class="cls-9" d="M47.48,106.82c0,.14-.09.26-.27.37l-1,.55q-.27.17-.27-.06v-1.92c0-.15.09-.27.28-.38l1-.55q.27-.15.27.06ZM47,107v-1.76l-.61.35v1.76Z"/><path class="cls-9" d="M48.41,106.5l-.45.26V105.1l-.18.1v0l.24-.78.39-.23Z"/><path class="cls-9" d="M50.3,105.19a.46.46,0,0,1-.28.38l-1,.55c-.19.1-.28.08-.28-.06v-1.93a.45.45,0,0,1,.28-.37l1-.55c.19-.11.28-.09.28.06Zm-.45.17v-1.75l-.61.35v1.75Z"/><path class="cls-9" d="M51.22,104.88l-.45.25v-1.66l-.18.1v0l.24-.79.39-.22Z"/><path class="cls-9" d="M56.78,101.66l-.45.26v-1.66l-.17.1v0l.23-.78.39-.23Z"/><path class="cls-9" d="M58.67,100.35a.45.45,0,0,1-.27.38l-1,.55q-.27.16-.27-.06V99.3c0-.15.09-.27.28-.38l.95-.55q.27-.15.27.06Zm-.44.18V98.77l-.61.35v1.76Z"/><path class="cls-9" d="M60.54,99.27a.45.45,0,0,1-.27.38l-1,.55q-.27.17-.27-.06V98.22c0-.15.09-.27.28-.38l1-.55q.27-.15.27.06Zm-.44.18V97.69l-.61.35v1.75Z"/><path class="cls-9" d="M62.42,98.19c0,.15-.1.27-.28.38l-1,.55c-.19.11-.28.09-.28-.06V97.14c0-.15.1-.27.28-.38l1-.55c.18-.1.28-.09.28.06Zm-.45.18V96.61l-.61.35v1.75Z"/><path class="cls-9" d="M65.21,96.8l-.45.26V95.39l-.18.11v0l.24-.79.39-.22Z"/><path class="cls-9" d="M67.1,95.49a.46.46,0,0,1-.28.38l-.95.55q-.27.15-.27-.06V94.43a.44.44,0,0,1,.28-.37l.94-.55c.19-.11.28-.09.28,0Zm-.45.17V93.91l-.6.35V96Z"/><path class="cls-9" d="M69,94.41a.47.47,0,0,1-.27.38l-1,.55q-.27.15-.27-.06V93.35a.44.44,0,0,1,.28-.37l1-.55c.18-.11.27-.09.27,0Zm-.45.17V92.83l-.6.35v1.75Z"/><path class="cls-9" d="M70.84,93.33a.44.44,0,0,1-.27.37l-1,.56q-.27.15-.27-.06V92.27a.46.46,0,0,1,.28-.38l.95-.54c.18-.11.27-.09.27.05Zm-.45.17V91.75l-.6.35v1.75Z"/><path class="cls-9" d="M71.76,93l-.45.26V91.61l-.17.1v0l.24-.79.38-.22Z"/><path class="cls-9" d="M73.66,91.71c0,.14-.1.26-.28.37l-1,.55q-.27.16-.27-.06V90.65c0-.15.1-.27.28-.38l.95-.55c.18-.1.28-.08.28.06Zm-.45.17V90.13l-.61.34v1.76Z"/><path class="cls-9" d="M36.17,117.27l-.45.26v-1.66l-.18.1v0l.24-.78.39-.23Z"/><path class="cls-9" d="M37.11,116.72l-.45.26v-1.66l-.18.1v0l.24-.79.39-.22Z"/><path class="cls-9" d="M39,115.42a.44.44,0,0,1-.28.37l-.95.55c-.19.11-.28.09-.28,0v-1.93a.48.48,0,0,1,.28-.38l.95-.55c.19-.1.28-.08.28.06Zm-.45.17v-1.75l-.6.35v1.75Z"/><path class="cls-9" d="M40.87,114.34a.44.44,0,0,1-.28.37l-1,.55c-.18.11-.27.09-.27-.05v-1.93a.47.47,0,0,1,.27-.38l1-.55c.19-.1.28-.08.28.06Zm-.45.17v-1.75l-.6.35v1.75Z"/><path class="cls-9" d="M42.74,113.26a.44.44,0,0,1-.28.37l-1,.55c-.18.11-.27.09-.27-.05V112.2a.45.45,0,0,1,.27-.38l1-.55c.19-.1.28-.08.28.06Zm-.45.17v-1.75l-.6.35v1.75Z"/><path class="cls-9" d="M43.66,112.94l-.45.26v-1.66l-.17.1v0l.23-.78.39-.23Z"/><path class="cls-9" d="M46.54,111.28l-.46.26v-1.66l-.17.1v0l.24-.78.39-.23Z"/><path class="cls-9" d="M48.43,110c0,.15-.1.27-.28.38l-.95.55c-.19.1-.28.09-.28-.06v-1.92c0-.15.1-.27.28-.38l.95-.55c.18-.11.28-.09.28.06Zm-.45.18v-1.76l-.61.35v1.76Z"/><path class="cls-9" d="M50.3,108.89c0,.15-.09.27-.28.38l-1,.55c-.19.1-.28.09-.28-.06v-1.92c0-.15.1-.27.28-.38l1-.55c.19-.11.28-.09.28.06Zm-.45.18v-1.76l-.61.35v1.76Z"/><path class="cls-9" d="M51.22,108.58l-.45.26v-1.67l-.18.11v0l.24-.79.39-.22Z"/><path class="cls-9" d="M57.7,104.83l-.45.26v-1.66l-.18.1v0l.24-.79.39-.22Z"/><path class="cls-9" d="M59.59,103.53a.44.44,0,0,1-.27.37l-1,.55c-.18.11-.27.09-.27,0v-1.93a.46.46,0,0,1,.28-.38l1-.55q.27-.15.27.06Zm-.45.17V102l-.6.35v1.75Z"/><path class="cls-9" d="M60.51,103.21l-.45.26v-1.66l-.17.1v0l.23-.78.39-.23Z"/><path class="cls-9" d="M62.4,101.9a.45.45,0,0,1-.27.38l-1,.55q-.27.17-.27-.06v-1.92c0-.15.09-.27.28-.38l1-.55c.18-.1.27-.09.27.06Zm-.44.18v-1.76l-.61.35v1.75Z"/><path class="cls-9" d="M65.22,100.49l-.45.26V99.09l-.18.1v0l.24-.78.39-.22Z"/><path class="cls-9" d="M66.16,100l-.45.26V98.55l-.17.1V98.6l.23-.78.39-.23Z"/><path class="cls-9" d="M68.05,98.64a.45.45,0,0,1-.27.38l-1,.55q-.27.15-.27-.06V97.58a.44.44,0,0,1,.28-.37l1-.55q.27-.16.27.06Zm-.44.17V97.06l-.61.35v1.75Z"/><path class="cls-9" d="M69,98.33l-.45.26V96.92l-.18.1v0l.24-.79L69,96Z"/><path class="cls-9" d="M70.87,97a.45.45,0,0,1-.28.37l-1,.55c-.18.11-.27.09-.27,0V96a.48.48,0,0,1,.28-.38l1-.54c.18-.11.28-.09.28,0Zm-.45.17V95.44l-.61.35v1.75Z"/><path class="cls-9" d="M72.74,95.94a.44.44,0,0,1-.28.37l-.95.55c-.19.11-.28.09-.28,0V94.88a.48.48,0,0,1,.28-.38l.95-.54c.19-.11.28-.09.28.05Zm-.45.17V94.36l-.61.35v1.75Z"/><path class="cls-9" d="M73.66,95.62l-.45.26V94.22l-.18.1v0l.24-.78.39-.23Z"/><g class="cls-13"><path class="cls-7" d="M71.75,35.29l-5,2.9c-.09.05-.16,0-.16-.07v-2.6a.32.32,0,0,1,.16-.24l5-2.89c.09,0,.16,0,.16.06v.42l.89-.52c.09-.05.16,0,.16.07v1.45a.3.3,0,0,1-.16.24l-.89.52v.42A.32.32,0,0,1,71.75,35.29Zm-4.86,2.5,4.71-2.72v-.42a.33.33,0,0,1,.15-.24l.9-.51V32.75l-.9.51c-.08.05-.15,0-.15-.06v-.42L66.89,35.5Z"/><polygon class="cls-7" points="36.95 55.59 35.96 56.16 35.96 53.23 36.95 52.66 36.95 55.59"/><polygon class="cls-7" points="38.56 54.66 37.56 55.24 37.56 53.1 38.56 52.52 38.56 54.66"/><polygon class="cls-7" points="40.16 53.74 39.17 54.31 39.17 53.35 40.16 52.78 40.16 53.74"/><path class="cls-7" d="M44.84,50c.16.07.16.33,0,.58s-.42.4-.58.33-.16-.32,0-.58S44.68,49.9,44.84,50Z"/><path class="cls-7" d="M45.5,49.36a.21.21,0,0,1-.17,0c-.41-.17-1.14.25-1.56.91-.09.14-.24.22-.33.18s-.08-.18,0-.32c.6-.93,1.63-1.53,2.22-1.28.09,0,.09.18,0,.33A.8.8,0,0,1,45.5,49.36Z"/><path class="cls-7" d="M46.18,48.28a.19.19,0,0,1-.16,0c-.78-.33-2.15.46-2.94,1.7-.08.14-.23.22-.32.18s-.09-.18,0-.32a5.52,5.52,0,0,1,1.79-1.78,2.07,2.07,0,0,1,1.79-.29c.09,0,.09.18,0,.33A.49.49,0,0,1,46.18,48.28Z"/><polygon class="cls-7" points="68.27 36.71 67.25 37.3 67.25 35.58 68.27 34.99 68.27 36.71"/></g><path class="cls-7" d="M132.76,46.16a.72.72,0,0,1-.2.59v0l0,0-.08,0-1.65.78c.15-.1.22-.31.22-.64v-5a1.92,1.92,0,0,0-1.09-1.73l-2.45-1.41c-.65-.37-1-.3-1.08.23l-2.49,3.11-1.75.81,7.62-9.53v-.27l-1.22-.7,1.75-.81,1.22.7v.27l-4.75,5.94,1.54-.7v0c.18-.15.47-.13.91.12l2.45,1.41a1.94,1.94,0,0,1,1.09,1.74Z"/><path class="cls-7" d="M126.06,30.29v5a1.17,1.17,0,0,1,0,.29h0l-.34.43-1.58.7a.77.77,0,0,0,.21-.63v-5a1.92,1.92,0,0,0-1.1-1.73L120.76,28c-.73-.42-1.1-.27-1.1.47v5a1.77,1.77,0,0,0,.51,1.27v4c0,.41-.1.67-.29.77l0,0-1.67.77a.89.89,0,0,0,.26-.76V27.91a2.26,2.26,0,0,0-1.28-2.05l-4.4-2.54a1.45,1.45,0,0,0-.88-.26h0l1.6-.81,0,.09c.21-.15.55-.09,1,.18l4.4,2.54a2.27,2.27,0,0,1,1.28,2.05v.52l1.4-.59v0c.17-.19.47-.18.93.08L125,28.56A1.93,1.93,0,0,1,126.06,30.29Z"/><path class="cls-7" d="M111.45,26.53v7.73a.38.38,0,0,1-.11.16h0a.34.34,0,0,1-.19.09l-1.61.77c.18-.12.27-.37.27-.77V28a2.05,2.05,0,0,0-.58-1.47v0l0,0a2.76,2.76,0,0,0-.66-.52l-3.46-2,.14-3.15,1.67,1-.06,1.38,3.46,2A2.42,2.42,0,0,1,111.45,26.53Z"/><polygon class="cls-7" points="111.45 20.76 111.45 22.62 109.7 23.43 109.7 21.57 103.23 17.83 104.98 17.02 111.45 20.76"/><polygon class="cls-7" points="107.72 30.98 107.72 32.79 105.09 31.27 105.09 28.53 103 27.32 104.75 26.51 106.84 27.72 106.84 30.47 107.72 30.98"/><path class="cls-6" d="M109.22,26.53s0,0,0,0l0,0a2.76,2.76,0,0,0-.66-.52l-3.46-2,.14-3.15,1.67,1,2.83,1.64V21.57l-6.47-3.74L103,24.61l4.72,2.72v5.46l-2.63-1.52V28.53L103,27.32V30.6a2.24,2.24,0,0,0,1.26,2l4.26,2.46c.44.25.76.33,1,.22h0c.18-.12.27-.37.27-.77V28A2.05,2.05,0,0,0,109.22,26.53Z"/><path class="cls-6" d="M117.14,25.86l-4.4-2.54a1.45,1.45,0,0,0-.88-.26h0c-.27.06-.4.34-.4.82v11.6a2.25,2.25,0,0,0,1.27,2l4.42,2.56a1.47,1.47,0,0,0,.86.26h0l.13-.06a.89.89,0,0,0,.26-.76V27.91A2.26,2.26,0,0,0,117.14,25.86Zm-3.6-.25,1.75,1,1,.6V37.77l-2.8-1.61Z"/><polygon class="cls-7" points="116.34 35.96 116.34 37.77 113.54 36.16 113.54 25.61 115.29 26.62 115.29 35.35 116.34 35.96"/><path class="cls-6" d="M129.92,40.21l-2.45-1.41c-.65-.37-1-.3-1.08.23a.82.82,0,0,0,0,.23v5a1.92,1.92,0,0,0,1.1,1.73l2.45,1.41a1,1,0,0,0,.81.21l.06,0c.15-.1.22-.31.22-.64v-5A1.92,1.92,0,0,0,129.92,40.21Zm-.43,5.65-1.62-.93V40.36l1.62.93Zm-.94-13.41L126,35.61h0l-.34.43L120.93,42v.25l1.22.71,7.62-9.53v-.27Zm-5-2.86a2.7,2.7,0,0,0-.33-.22L120.76,28c-.73-.42-1.1-.27-1.1.47v5a1.77,1.77,0,0,0,.51,1.27,2.37,2.37,0,0,0,.59.46l2.45,1.42a2.45,2.45,0,0,0,.33.16.6.6,0,0,0,.54,0h0a.77.77,0,0,0,.21-.63v-5A1.82,1.82,0,0,0,123.54,29.59ZM122.79,35l-1.62-.94V29.51l1.62.93Z"/><polygon class="cls-7" points="129.49 41.29 129.49 45.86 127.87 44.93 127.87 40.36 129.49 41.29"/><polygon class="cls-7" points="122.79 30.44 122.79 35.02 121.17 34.08 121.17 29.51 122.79 30.44"/><polygon class="cls-14" points="78.31 136.66 102.17 158.83 115.25 149.5 96.99 135.24 89.44 134.46 103 147.83 86.46 138.01 78.31 136.66"/><polygon class="cls-7" points="165.84 103.98 153.49 111.11 141.15 103.98 153.49 96.86 165.84 103.98"/><polygon class="cls-15" points="153.49 111.11 153.49 147.83 165.84 140.71 165.84 103.98 153.49 111.11"/><polygon class="cls-16" points="141.15 103.98 153.49 111.11 153.49 147.83 141.15 140.71 141.15 103.98"/><polygon class="cls-7" points="149.39 122.91 137.05 130.04 124.7 122.91 137.05 115.78 149.39 122.91"/><polygon class="cls-17" points="149.39 149.91 149.39 122.91 137.05 130.04 137.05 157.03 149.39 149.91"/><polygon class="cls-18" points="124.7 122.91 124.7 149.91 137.05 157.03 137.05 130.04 124.7 122.91"/><polygon class="cls-19" points="132.95 141.83 132.95 159.1 120.6 166.23 120.6 148.96 132.95 141.83"/><polygon class="cls-20" points="108.25 141.83 120.6 148.96 120.6 166.23 108.25 159.1 108.25 141.83"/><polygon class="cls-7" points="132.95 141.83 120.6 148.96 108.25 141.83 120.6 134.7 132.95 141.83"/><path class="cls-21" d="M78.18,88.69a12.07,12.07,0,0,0-3,.71c-.71.44-2.48,2.48-2.26,2.83s1,.4,1.57,0,1.33-1.27,1.57-1.37c.64-.26,2,.24,3-.62S78.18,88.69,78.18,88.69Z"/><path class="cls-22" d="M78.8,135.3l.11-.07a3.5,3.5,0,0,1,3.32.16l3.51,2h.71v1h0a1.19,1.19,0,0,1-.71,1.05,3.88,3.88,0,0,1-3.51,0l-3.32-2.18a1.28,1.28,0,0,1-.72-.94h0l.13-1Z"/><path class="cls-23" d="M78.91,136.31l3.32,2.19a3.94,3.94,0,0,0,3.51,0h0a1.49,1.49,0,0,0,0-2.55,27,27,0,0,0-3.7-1.77,3.67,3.67,0,0,0-3.17.19A1.1,1.1,0,0,0,78.91,136.31Z"/><path class="cls-22" d="M89.33,132.51l.11-.07a3.52,3.52,0,0,1,3.33.16l3.5,2H97v1h0a1.19,1.19,0,0,1-.71,1,3.86,3.86,0,0,1-3.5,0l-3.33-2.18a1.28,1.28,0,0,1-.72-.94h0l.13-1Z"/><path class="cls-23" d="M89.44,133.52l3.33,2.19a3.92,3.92,0,0,0,3.5,0h0a1.49,1.49,0,0,0,0-2.55,27,27,0,0,0-3.7-1.77,3.67,3.67,0,0,0-3.17.19A1.1,1.1,0,0,0,89.44,133.52Z"/><path class="cls-24" d="M97,134.3c0,.66-1.14,1-1.78,1.17-1.14.23-3.22-.23-3.51-1.36s-.62-2.46-.76-3c-.67-3-1.68-10.27-2.34-16.69,0-.31-.07-.62-.1-.93-.08.21-.15.42-.22.65-2,6.35-2,19.94-2.08,21.65,0,.1,0,.18,0,.24a1,1,0,0,1,0,.25c-.29,1.11-2.48,1.1-2.93,1a3,3,0,0,1-1.29-.35,1.45,1.45,0,0,1-.67-.73A209.24,209.24,0,0,1,80,110.4a90.46,90.46,0,0,1,.57-9.15c0-.22,0-.33,0-.33a31.16,31.16,0,0,1,6,1c.12-.9.52.16.52.16l8.85-1,.2,0v0q0,.11,0,.48c0,.35,0,.85.06,1.53,0,1.15,0,2.8,0,4.86C96.17,111.3,94.45,119.45,97,134.3Z"/><path class="cls-25" d="M59.8,73.77a1.05,1.05,0,0,0-.08.13Z"/><path class="cls-26" d="M83.35,109a8.46,8.46,0,0,1-1.46-.67c-1.76-1-3-2.37-2.84-3.7,0,0,.16-3.51.34-7.69h0C84.41,96.61,83.89,105,83.35,109Z"/><path class="cls-26" d="M93.44,75.71c-.67,2.09-2.4,2.87-4,3.35a12.53,12.53,0,0,1-5.25.31l-.18,0,.63.8.36,1.2v4.33l-5,6.22-.44.36c.06-1.81.12-3.56.15-5A30.42,30.42,0,0,1,81,78.43a2.33,2.33,0,0,1,.43-.62l.58-.57c2.35-2.26,2.71-1.93,2.71-1.93l5.23-1.88.26-.09a2.6,2.6,0,0,1,.33,0h0l.46.09c.19,0,.4.1.64.17v-.37a4,4,0,0,1,.5-.06l-.23.06C93,73.77,93.77,74.66,93.44,75.71Z"/><path class="cls-26" d="M98.14,80.36a14.46,14.46,0,0,0-.41-2.54A10.62,10.62,0,0,1,98.14,80.36Z"/><path class="cls-27" d="M88.92,79.15a9.86,9.86,0,0,1-7.28-1.57l.35-.34a9.27,9.27,0,0,0,6.85,1.53c4.16-.66,4.54-2.41,4.45-3.61-.1-1-1.39-1.76-1.66-1.9l.46-.07a3.33,3.33,0,0,1,1.58,2.1C93.78,76.57,93.37,78.44,88.92,79.15Z"/><path class="cls-23" d="M83.92,60c3.18.58,4.82-.29,6,1.34,1.09,1.43-.7,5.41.66,7.38,1,1.43,4.32-.08,5.16-2.89.71-3.52.07-7-1.08-8.5-2.61-3.32-7.07-3.85-10.47-2.93a8.41,8.41,0,0,0-3.64,1.89C80.15,57.63,80.73,59.37,83.92,60Z"/><path class="cls-23" d="M83.77,60.28c3.16.61,4.78-.31,6,1.42,1.08,1.51-.7,5.71.65,7.79,1,1.51,4.29-.09,5.12-3,.71-3.72.07-7.41-1.08-9-2.58-3.51-7-4.07-10.38-3.1a8.31,8.31,0,0,0-3.62,2C80,57.84,80.6,59.67,83.77,60.28Z"/><path class="cls-28" d="M81.78,70a2.7,2.7,0,0,0,.34.59c1.51,2,4.42,2.06,6.23,1.57.74-.21.86-2.27.76-4.61-.15-3.34-.76-7.27-.76-7.27l-7.44.51S80.64,67.43,81.78,70Z"/><path class="cls-7" d="M91.51,73.5a1.6,1.6,0,0,1,.29,2.13c-.79,1.25-2.71,1.83-4.5,1.54a34.43,34.43,0,0,1-4-1.12c-.2,0,1.37-1.24,1.37-1.24Z"/><path class="cls-29" d="M87.43,68.5h0l1.66-.92A16,16,0,0,1,89,70.83h0l2.6-.84v4.43a1.89,1.89,0,0,1-1,1.58,5.9,5.9,0,0,1-4.9,0c-1.17-.59-1-1.38-1-1.38V72.21h0a5.17,5.17,0,0,1-1.06-.38,4.2,4.2,0,0,1-1.51-1.21,2.88,2.88,0,0,1-.34-.61C85,71.84,87.43,68.5,87.43,68.5Z"/><path class="cls-30" d="M79.42,58.54c0,1.32,2,2.65,3,3.67,1.46,1.46-.19,3.86.83,4s.87-3.12,2.73-1.87c1,.68,1.66,5.16,1.66,6.28s3.5,2.48,5,.92a11.17,11.17,0,0,0,3-5.78c-.84,2.81-4.19,4.32-5.16,2.89-1.36-2,.43-6-.66-7.38-1.22-1.63-2.86-.76-6-1.34s-3.77-2.32-3.33-3.71h0A3.28,3.28,0,0,0,79.42,58.54Z"/><path class="cls-26" d="M84.27,87.92c-1.09,1.79-5,8.68-7.47,8.66s-2.8-2.44-2.34-4.23c0-.14.08-.28.13-.41.63-1.8,4.1-12.94,6.55-13.57a3,3,0,0,1,3.1,1.2,6.22,6.22,0,0,1,1,1.62C86,83,85.37,86.12,84.27,87.92Z"/><path class="cls-31" d="M84.31,118.56v18.78c-1,.12-2.65,0-3-1.09,0-.1-.16-1.78-.23-2.29a202.24,202.24,0,0,1-1-23.56C80.74,110.53,84.31,111.57,84.31,118.56Z"/><path class="cls-31" d="M93,135.25a1.81,1.81,0,0,1-1.28-1.14s-.21-.7-.52-2l-.06-.26c-.06-.23-.11-.46-.18-.71-.67-3-1.68-10.27-2.34-16.69,1.09,1,2.19,2.91,2.61,6.32C91.78,125.46,92.5,131.35,93,135.25Z"/><path class="cls-27" d="M84.27,87.92c-1.09,1.79-5,8.68-7.47,8.66s-2.8-2.44-2.34-4.23h0c2.13,2.32,5.1-1.1,8-5.29s1.72-7.49,1.72-7.49h0a6.22,6.22,0,0,1,1,1.62C86,83,85.37,86.12,84.27,87.92Z"/><path class="cls-27" d="M98,90.87c0,.59-1.09,1.8-1.31,1.75,0,.16.3,10.69.35,11.23.14,1.42-1.28,3.42-3.15,4.5a10.79,10.79,0,0,1-2.66,1l-.45-4.62-.46,4.81a13.86,13.86,0,0,1-6.92-.55c.54-4,1.06-12.41-3.93-12.06h0c0-1.53.12-3.15.17-4.72l.44-.36,5-6.22V81.33l-.36-1.2-.63-.8.18,0a12.53,12.53,0,0,0,5.25-.31c1.59-.48,3.32-1.26,4-3.35.33-1-.44-1.94-1.54-2.45l.23-.06a4.09,4.09,0,0,1,2.4.53l.51.32c2.45,1.66,3.14,4.24,3.14,7.42C98.18,81.47,98.29,86,98,90.87Z"/><path class="cls-27" d="M97.63,77.47A6.43,6.43,0,0,0,95,74.05l-.51-.32a4.09,4.09,0,0,0-2.4-.53C95,72.44,96.81,74.66,97.63,77.47Z"/><g class="cls-8"><path class="cls-27" d="M153.39,45.74l-3.1,1.07a9.08,9.08,0,0,0-2.87-2.76,5.66,5.66,0,0,0-1.39-.58h0a3,3,0,0,0-1.49,0l-3.09-4.64h0c1.54-.63,3.65-.35,6,1A18.08,18.08,0,0,1,153.39,45.74Z"/><path class="cls-3" d="M155.92,53.26c0,2.16-.8,3.67-2.13,4.41h0l-.39.18h0c-1.47.61-3.46.38-5.68-.82v-.81l0-3.38c1.81.9,3.3.5,3.79-.9a3.34,3.34,0,0,0,.17-1.1,6.78,6.78,0,0,0-.9-3.15l3.11-1.07A14,14,0,0,1,155.92,53.26Z"/><path class="cls-9" d="M147,52.37l0,4.2c-4.48-2.83-8-8.59-8-13.14,0-2.08.75-3.57,2-4.32l3.1,4.65a2.47,2.47,0,0,0-.89,2.1C143.12,48.09,144.81,50.9,147,52.37Z"/></g><path class="cls-7" d="M156.12,44.47l-2.73,1.27a18.08,18.08,0,0,0-6-5.9c-2.34-1.35-4.45-1.63-6-1l2.74-1.27c1.54-.63,3.65-.35,6,1A18,18,0,0,1,156.12,44.47Z"/><path class="cls-7" d="M158.66,52a6.11,6.11,0,0,1-.61,2.81,3.88,3.88,0,0,1-1.67,1.66l-.06,0-.11,0-2.42,1.13c1.33-.74,2.13-2.25,2.13-4.41a14,14,0,0,0-2-6.65l-3.11,1.07,2.73-1.28,3.11-1.06A14,14,0,0,1,158.66,52Z"/><path class="cls-7" d="M151.54,51.93c-.49,1.4-2,1.8-3.79.9l0,3.38-.78.36,0-4.2c-2.17-1.47-3.86-4.28-3.86-6.51a2.47,2.47,0,0,1,.89-2.1l-3.1-4.65.53-.26,3.09,4.64a3,3,0,0,1,1.49,0,3.47,3.47,0,0,0-.17,1.12c0,2.23,1.7,5,3.86,6.51v.82l.78-.37A4.2,4.2,0,0,0,151.54,51.93Z"/><polygon class="cls-7" points="179 62.2 179 64.22 177.18 65.17 177.18 63.16 160.28 53.4 162.1 52.45 179 62.2"/><polygon class="cls-7" points="171.9 54.03 171.9 56.05 170.08 57 170.08 54.99 160.28 49.33 162.1 48.37 171.9 54.03"/><polygon class="cls-7" points="179 66.28 179 68.29 177.18 69.25 177.18 67.23 160.28 57.48 162.1 56.52 177.09 65.17 179 66.28"/><polygon class="cls-6" points="170.08 54.99 170.08 57 160.28 51.35 160.28 49.33 170.08 54.99"/><polygon class="cls-6" points="160.28 55.42 160.28 53.4 177.18 63.16 177.18 65.17 160.28 55.42"/><polygon class="cls-6" points="177.18 67.23 177.18 69.25 160.28 59.49 160.28 57.48 177.18 67.23"/><path class="cls-32" d="M69.71,150.29c0-4-3.28-9.23-7.33-11.57a7.32,7.32,0,0,0-3.64-1.1,21.54,21.54,0,0,0-8.84-10.8c-3.9-2.24-7.23-1.87-8.8.52a14.1,14.1,0,0,0-3.46-2.9c-2.55-1.48-4.79-1.47-6.1-.26h0L26.77,128,33,132.82A16.1,16.1,0,0,0,37.83,138V138l6.9,4L64,157.11l4.31-3.37A4.36,4.36,0,0,0,69.71,150.29Z"/><path class="cls-7" d="M57.65,142.46A7.39,7.39,0,0,0,54,141.37a21.57,21.57,0,0,0-8.85-10.8c-3.89-2.25-7.23-1.88-8.79.52a14.6,14.6,0,0,0-3.47-2.91c-4-2.34-7.33-1-7.33,3.1,0,3.86,3,8.72,6.78,11.19v.06l25.29,14.6c4.05,2.34,7.34,1,7.34-3.1S61.7,144.8,57.65,142.46Z"/></g></g></svg>